<svg xmlns="http://www.w3.org/2000/svg" xmlns:xlink="http://www.w3.org/1999/xlink" width="500" zoomAndPan="magnify" viewBox="0 0 375 299.999988" height="400" preserveAspectRatio="xMidYMid meet" version="1.0"><defs><linearGradient x1="-0.00681817" gradientTransform="matrix(220.000002, 0, 0, 69.999998, 39.999998, 184.999999)" y1="0" x2="1.006818" gradientUnits="userSpaceOnUse" y2="0" id="120fcbabe6"><stop stop-opacity="0.7" stop-color="rgb(90.99884%, 22.698975%, 58.399963%)" offset="0"/><stop stop-opacity="0.7" stop-color="rgb(90.927124%, 22.758484%, 58.44574%)" offset="0.0078125"/><stop stop-opacity="0.7" stop-color="rgb(90.339661%, 23.254395%, 58.81958%)" offset="0.0117188"/><stop stop-opacity="0.7" stop-color="rgb(89.825439%, 23.68927%, 59.14917%)" offset="0.015625"/><stop stop-opacity="0.7" stop-color="rgb(89.309692%, 24.124146%, 59.47876%)" offset="0.0195313"/><stop stop-opacity="0.7" stop-color="rgb(88.793945%, 24.559021%, 59.80835%)" offset="0.0234375"/><stop stop-opacity="0.7" stop-color="rgb(88.278198%, 24.993896%, 60.137939%)" offset="0.0273438"/><stop stop-opacity="0.7" stop-color="rgb(87.762451%, 25.428772%, 60.467529%)" offset="0.03125"/><stop stop-opacity="0.7" stop-color="rgb(87.246704%, 25.863647%, 60.797119%)" offset="0.0351563"/><stop stop-opacity="0.7" stop-color="rgb(86.730957%, 26.298523%, 61.126709%)" offset="0.0390625"/><stop stop-opacity="0.7" stop-color="rgb(86.21521%, 26.733398%, 61.456299%)" offset="0.0429688"/><stop stop-opacity="0.7" stop-color="rgb(85.700989%, 27.168274%, 61.785889%)" offset="0.046875"/><stop stop-opacity="0.7" stop-color="rgb(85.185242%, 27.601624%, 62.113953%)" offset="0.0507813"/><stop stop-opacity="0.7" stop-color="rgb(84.669495%, 28.036499%, 62.443542%)" offset="0.0546875"/><stop stop-opacity="0.7" stop-color="rgb(84.153748%, 28.471375%, 62.773132%)" offset="0.0585938"/><stop stop-opacity="0.7" stop-color="rgb(83.638%, 28.90625%, 63.102722%)" offset="0.0625"/><stop stop-opacity="0.7" stop-color="rgb(83.122253%, 29.341125%, 63.432312%)" offset="0.0664062"/><stop stop-opacity="0.7" stop-color="rgb(82.608032%, 29.776001%, 63.761902%)" offset="0.0703125"/><stop stop-opacity="0.7" stop-color="rgb(82.092285%, 30.210876%, 64.091492%)" offset="0.0742188"/><stop stop-opacity="0.7" stop-color="rgb(81.576538%, 30.645752%, 64.421082%)" offset="0.078125"/><stop stop-opacity="0.7" stop-color="rgb(81.060791%, 31.080627%, 64.749146%)" offset="0.0820313"/><stop stop-opacity="0.7" stop-color="rgb(80.545044%, 31.515503%, 65.078735%)" offset="0.0859375"/><stop stop-opacity="0.7" stop-color="rgb(80.029297%, 31.950378%, 65.408325%)" offset="0.0898438"/><stop stop-opacity="0.7" stop-color="rgb(79.51355%, 32.385254%, 65.737915%)" offset="0.09375"/><stop stop-opacity="0.7" stop-color="rgb(78.997803%, 32.818604%, 66.067505%)" offset="0.0976563"/><stop stop-opacity="0.7" stop-color="rgb(78.483582%, 33.253479%, 66.397095%)" offset="0.101563"/><stop stop-opacity="0.7" stop-color="rgb(77.967834%, 33.688354%, 66.726685%)" offset="0.105469"/><stop stop-opacity="0.7" stop-color="rgb(77.452087%, 34.12323%, 67.056274%)" offset="0.109375"/><stop stop-opacity="0.7" stop-color="rgb(76.93634%, 34.558105%, 67.385864%)" offset="0.113281"/><stop stop-opacity="0.7" stop-color="rgb(76.420593%, 34.992981%, 67.715454%)" offset="0.117188"/><stop stop-opacity="0.7" stop-color="rgb(75.904846%, 35.427856%, 68.043518%)" offset="0.121094"/><stop stop-opacity="0.7" stop-color="rgb(75.390625%, 35.862732%, 68.373108%)" offset="0.125"/><stop stop-opacity="0.7" stop-color="rgb(74.874878%, 36.297607%, 68.702698%)" offset="0.128906"/><stop stop-opacity="0.7" stop-color="rgb(74.359131%, 36.732483%, 69.032288%)" offset="0.132813"/><stop stop-opacity="0.7" stop-color="rgb(73.843384%, 37.167358%, 69.361877%)" offset="0.136719"/><stop stop-opacity="0.7" stop-color="rgb(73.327637%, 37.602234%, 69.691467%)" offset="0.140625"/><stop stop-opacity="0.7" stop-color="rgb(72.81189%, 38.037109%, 70.021057%)" offset="0.144531"/><stop stop-opacity="0.7" stop-color="rgb(72.296143%, 38.471985%, 70.350647%)" offset="0.148438"/><stop stop-opacity="0.7" stop-color="rgb(71.780396%, 38.905334%, 70.680237%)" offset="0.152344"/><stop stop-opacity="0.7" stop-color="rgb(71.266174%, 39.34021%, 71.009827%)" offset="0.15625"/><stop stop-opacity="0.7" stop-color="rgb(70.750427%, 39.775085%, 71.337891%)" offset="0.160156"/><stop stop-opacity="0.7" stop-color="rgb(70.23468%, 40.209961%, 71.66748%)" offset="0.164063"/><stop stop-opacity="0.7" stop-color="rgb(69.718933%, 40.644836%, 71.99707%)" offset="0.167969"/><stop stop-opacity="0.7" stop-color="rgb(69.203186%, 41.079712%, 72.32666%)" offset="0.171875"/><stop stop-opacity="0.7" stop-color="rgb(68.687439%, 41.514587%, 72.65625%)" offset="0.175781"/><stop stop-opacity="0.7" stop-color="rgb(68.173218%, 41.949463%, 72.98584%)" offset="0.179688"/><stop stop-opacity="0.7" stop-color="rgb(67.657471%, 42.384338%, 73.31543%)" offset="0.183594"/><stop stop-opacity="0.7" stop-color="rgb(67.141724%, 42.819214%, 73.64502%)" offset="0.1875"/><stop stop-opacity="0.7" stop-color="rgb(66.625977%, 43.254089%, 73.974609%)" offset="0.191406"/><stop stop-opacity="0.7" stop-color="rgb(66.110229%, 43.688965%, 74.304199%)" offset="0.195313"/><stop stop-opacity="0.7" stop-color="rgb(65.594482%, 44.122314%, 74.632263%)" offset="0.199219"/><stop stop-opacity="0.7" stop-color="rgb(65.078735%, 44.55719%, 74.961853%)" offset="0.203125"/><stop stop-opacity="0.7" stop-color="rgb(64.562988%, 44.992065%, 75.291443%)" offset="0.207031"/><stop stop-opacity="0.7" stop-color="rgb(64.048767%, 45.426941%, 75.621033%)" offset="0.210938"/><stop stop-opacity="0.7" stop-color="rgb(63.53302%, 45.861816%, 75.950623%)" offset="0.214844"/><stop stop-opacity="0.7" stop-color="rgb(63.017273%, 46.296692%, 76.280212%)" offset="0.21875"/><stop stop-opacity="0.7" stop-color="rgb(62.501526%, 46.731567%, 76.609802%)" offset="0.222656"/><stop stop-opacity="0.7" stop-color="rgb(61.985779%, 47.166443%, 76.939392%)" offset="0.226563"/><stop stop-opacity="0.7" stop-color="rgb(61.470032%, 47.601318%, 77.268982%)" offset="0.230469"/><stop stop-opacity="0.7" stop-color="rgb(60.955811%, 48.036194%, 77.598572%)" offset="0.234375"/><stop stop-opacity="0.7" stop-color="rgb(60.440063%, 48.471069%, 77.926636%)" offset="0.238281"/><stop stop-opacity="0.7" stop-color="rgb(59.924316%, 48.905945%, 78.256226%)" offset="0.242188"/><stop stop-opacity="0.7" stop-color="rgb(59.408569%, 49.339294%, 78.585815%)" offset="0.246094"/><stop stop-opacity="0.7" stop-color="rgb(58.892822%, 49.77417%, 78.915405%)" offset="0.25"/><stop stop-opacity="0.7" stop-color="rgb(58.377075%, 50.209045%, 79.244995%)" offset="0.253906"/><stop stop-opacity="0.7" stop-color="rgb(57.861328%, 50.643921%, 79.574585%)" offset="0.257813"/><stop stop-opacity="0.7" stop-color="rgb(57.345581%, 51.078796%, 79.904175%)" offset="0.261719"/><stop stop-opacity="0.7" stop-color="rgb(56.83136%, 51.513672%, 80.233765%)" offset="0.265625"/><stop stop-opacity="0.7" stop-color="rgb(56.315613%, 51.948547%, 80.563354%)" offset="0.269531"/><stop stop-opacity="0.7" stop-color="rgb(55.799866%, 52.383423%, 80.892944%)" offset="0.273438"/><stop stop-opacity="0.7" stop-color="rgb(55.284119%, 52.818298%, 81.221008%)" offset="0.277344"/><stop stop-opacity="0.7" stop-color="rgb(54.768372%, 53.253174%, 81.550598%)" offset="0.28125"/><stop stop-opacity="0.7" stop-color="rgb(54.252625%, 53.688049%, 81.880188%)" offset="0.285156"/><stop stop-opacity="0.7" stop-color="rgb(53.738403%, 54.122925%, 82.209778%)" offset="0.289063"/><stop stop-opacity="0.7" stop-color="rgb(53.222656%, 54.5578%, 82.539368%)" offset="0.292969"/><stop stop-opacity="0.7" stop-color="rgb(52.706909%, 54.992676%, 82.868958%)" offset="0.296875"/><stop stop-opacity="0.7" stop-color="rgb(52.191162%, 55.426025%, 83.198547%)" offset="0.300781"/><stop stop-opacity="0.7" stop-color="rgb(51.675415%, 55.860901%, 83.528137%)" offset="0.304688"/><stop stop-opacity="0.7" stop-color="rgb(51.159668%, 56.295776%, 83.856201%)" offset="0.308594"/><stop stop-opacity="0.7" stop-color="rgb(50.643921%, 56.730652%, 84.185791%)" offset="0.3125"/><stop stop-opacity="0.7" stop-color="rgb(50.128174%, 57.165527%, 84.515381%)" offset="0.316406"/><stop stop-opacity="0.7" stop-color="rgb(49.613953%, 57.600403%, 84.844971%)" offset="0.320312"/><stop stop-opacity="0.7" stop-color="rgb(49.098206%, 58.035278%, 85.174561%)" offset="0.324219"/><stop stop-opacity="0.7" stop-color="rgb(48.582458%, 58.470154%, 85.50415%)" offset="0.328125"/><stop stop-opacity="0.7" stop-color="rgb(48.066711%, 58.905029%, 85.83374%)" offset="0.332031"/><stop stop-opacity="0.7" stop-color="rgb(47.550964%, 59.339905%, 86.16333%)" offset="0.335938"/><stop stop-opacity="0.7" stop-color="rgb(47.035217%, 59.77478%, 86.49292%)" offset="0.339844"/><stop stop-opacity="0.7" stop-color="rgb(46.520996%, 60.209656%, 86.82251%)" offset="0.34375"/><stop stop-opacity="0.7" stop-color="rgb(46.005249%, 60.643005%, 87.150574%)" offset="0.347656"/><stop stop-opacity="0.7" stop-color="rgb(45.489502%, 61.077881%, 87.480164%)" offset="0.351562"/><stop stop-opacity="0.7" stop-color="rgb(44.973755%, 61.512756%, 87.809753%)" offset="0.355469"/><stop stop-opacity="0.7" stop-color="rgb(44.458008%, 61.947632%, 88.139343%)" offset="0.359375"/><stop stop-opacity="0.7" stop-color="rgb(43.942261%, 62.382507%, 88.468933%)" offset="0.363281"/><stop stop-opacity="0.7" stop-color="rgb(43.426514%, 62.817383%, 88.798523%)" offset="0.367188"/><stop stop-opacity="0.7" stop-color="rgb(42.910767%, 63.252258%, 89.128113%)" offset="0.371094"/><stop stop-opacity="0.7" stop-color="rgb(42.396545%, 63.687134%, 89.457703%)" offset="0.375"/><stop stop-opacity="0.7" stop-color="rgb(41.880798%, 64.122009%, 89.787292%)" offset="0.378906"/><stop stop-opacity="0.7" stop-color="rgb(41.365051%, 64.556885%, 90.116882%)" offset="0.382812"/><stop stop-opacity="0.7" stop-color="rgb(40.849304%, 64.99176%, 90.444946%)" offset="0.386719"/><stop stop-opacity="0.7" stop-color="rgb(40.333557%, 65.426636%, 90.774536%)" offset="0.390625"/><stop stop-opacity="0.7" stop-color="rgb(39.81781%, 65.859985%, 91.104126%)" offset="0.394531"/><stop stop-opacity="0.7" stop-color="rgb(39.303589%, 66.294861%, 91.433716%)" offset="0.398438"/><stop stop-opacity="0.7" stop-color="rgb(38.787842%, 66.729736%, 91.763306%)" offset="0.402344"/><stop stop-opacity="0.7" stop-color="rgb(38.272095%, 67.164612%, 92.092896%)" offset="0.40625"/><stop stop-opacity="0.7" stop-color="rgb(37.756348%, 67.599487%, 92.422485%)" offset="0.410156"/><stop stop-opacity="0.7" stop-color="rgb(37.240601%, 68.034363%, 92.752075%)" offset="0.414063"/><stop stop-opacity="0.7" stop-color="rgb(36.724854%, 68.469238%, 93.081665%)" offset="0.417969"/><stop stop-opacity="0.7" stop-color="rgb(36.209106%, 68.904114%, 93.411255%)" offset="0.421875"/><stop stop-opacity="0.7" stop-color="rgb(35.693359%, 69.338989%, 93.739319%)" offset="0.425781"/><stop stop-opacity="0.7" stop-color="rgb(35.179138%, 69.773865%, 94.068909%)" offset="0.429688"/><stop stop-opacity="0.7" stop-color="rgb(34.663391%, 70.20874%, 94.398499%)" offset="0.433594"/><stop stop-opacity="0.7" stop-color="rgb(34.147644%, 70.643616%, 94.728088%)" offset="0.4375"/><stop stop-opacity="0.7" stop-color="rgb(33.631897%, 71.078491%, 95.057678%)" offset="0.441406"/><stop stop-opacity="0.7" stop-color="rgb(33.11615%, 71.513367%, 95.387268%)" offset="0.445313"/><stop stop-opacity="0.7" stop-color="rgb(32.600403%, 71.946716%, 95.716858%)" offset="0.449219"/><stop stop-opacity="0.7" stop-color="rgb(32.086182%, 72.381592%, 96.046448%)" offset="0.453125"/><stop stop-opacity="0.7" stop-color="rgb(31.570435%, 72.816467%, 96.376038%)" offset="0.457031"/><stop stop-opacity="0.7" stop-color="rgb(31.054688%, 73.251343%, 96.705627%)" offset="0.460938"/><stop stop-opacity="0.7" stop-color="rgb(30.53894%, 73.686218%, 97.033691%)" offset="0.464844"/><stop stop-opacity="0.7" stop-color="rgb(30.023193%, 74.121094%, 97.363281%)" offset="0.46875"/><stop stop-opacity="0.7" stop-color="rgb(29.507446%, 74.555969%, 97.692871%)" offset="0.472656"/><stop stop-opacity="0.7" stop-color="rgb(28.991699%, 74.990845%, 98.022461%)" offset="0.476563"/><stop stop-opacity="0.7" stop-color="rgb(28.475952%, 75.42572%, 98.352051%)" offset="0.480469"/><stop stop-opacity="0.7" stop-color="rgb(27.961731%, 75.860596%, 98.681641%)" offset="0.484375"/><stop stop-opacity="0.7" stop-color="rgb(27.445984%, 76.295471%, 99.01123%)" offset="0.488281"/><stop stop-opacity="0.7" stop-color="rgb(26.930237%, 76.730347%, 99.34082%)" offset="0.492188"/><stop stop-opacity="0.7" stop-color="rgb(26.41449%, 77.163696%, 99.668884%)" offset="0.496094"/><stop stop-opacity="0.7" stop-color="rgb(25.898743%, 77.598572%, 99.998474%)" offset="0.5"/><stop stop-opacity="0.7" stop-color="rgb(26.48468%, 77.565002%, 99.365234%)" offset="0.503906"/><stop stop-opacity="0.7" stop-color="rgb(27.072144%, 77.531433%, 98.731995%)" offset="0.507813"/><stop stop-opacity="0.7" stop-color="rgb(27.659607%, 77.496338%, 98.098755%)" offset="0.511719"/><stop stop-opacity="0.7" stop-color="rgb(28.24707%, 77.462769%, 97.465515%)" offset="0.515625"/><stop stop-opacity="0.7" stop-color="rgb(28.833008%, 77.429199%, 96.83075%)" offset="0.519531"/><stop stop-opacity="0.7" stop-color="rgb(29.420471%, 77.39563%, 96.19751%)" offset="0.523438"/><stop stop-opacity="0.7" stop-color="rgb(30.006409%, 77.360535%, 95.56427%)" offset="0.527344"/><stop stop-opacity="0.7" stop-color="rgb(30.593872%, 77.326965%, 94.93103%)" offset="0.53125"/><stop stop-opacity="0.7" stop-color="rgb(31.17981%, 77.29187%, 94.297791%)" offset="0.535156"/><stop stop-opacity="0.7" stop-color="rgb(31.767273%, 77.258301%, 93.664551%)" offset="0.539063"/><stop stop-opacity="0.7" stop-color="rgb(32.35321%, 77.224731%, 93.029785%)" offset="0.542969"/><stop stop-opacity="0.7" stop-color="rgb(32.940674%, 77.191162%, 92.396545%)" offset="0.546875"/><stop stop-opacity="0.7" stop-color="rgb(33.526611%, 77.156067%, 91.763306%)" offset="0.550781"/><stop stop-opacity="0.7" stop-color="rgb(34.114075%, 77.122498%, 91.130066%)" offset="0.554688"/><stop stop-opacity="0.7" stop-color="rgb(34.700012%, 77.087402%, 90.496826%)" offset="0.558594"/><stop stop-opacity="0.7" stop-color="rgb(35.287476%, 77.053833%, 89.863586%)" offset="0.5625"/><stop stop-opacity="0.7" stop-color="rgb(35.874939%, 77.020264%, 89.228821%)" offset="0.566406"/><stop stop-opacity="0.7" stop-color="rgb(36.462402%, 76.986694%, 88.595581%)" offset="0.570313"/><stop stop-opacity="0.7" stop-color="rgb(37.04834%, 76.951599%, 87.962341%)" offset="0.574219"/><stop stop-opacity="0.7" stop-color="rgb(37.635803%, 76.91803%, 87.329102%)" offset="0.578125"/><stop stop-opacity="0.7" stop-color="rgb(38.221741%, 76.882935%, 86.694336%)" offset="0.582031"/><stop stop-opacity="0.7" stop-color="rgb(38.809204%, 76.849365%, 86.061096%)" offset="0.585938"/><stop stop-opacity="0.7" stop-color="rgb(39.395142%, 76.815796%, 85.427856%)" offset="0.589844"/><stop stop-opacity="0.7" stop-color="rgb(39.982605%, 76.782227%, 84.794617%)" offset="0.59375"/><stop stop-opacity="0.7" stop-color="rgb(40.568542%, 76.747131%, 84.161377%)" offset="0.597656"/><stop stop-opacity="0.7" stop-color="rgb(41.156006%, 76.713562%, 83.528137%)" offset="0.601563"/><stop stop-opacity="0.7" stop-color="rgb(41.741943%, 76.679993%, 82.893372%)" offset="0.605469"/><stop stop-opacity="0.7" stop-color="rgb(42.329407%, 76.646423%, 82.260132%)" offset="0.609375"/><stop stop-opacity="0.7" stop-color="rgb(42.915344%, 76.611328%, 81.626892%)" offset="0.613281"/><stop stop-opacity="0.7" stop-color="rgb(43.502808%, 76.577759%, 80.993652%)" offset="0.617188"/><stop stop-opacity="0.7" stop-color="rgb(44.088745%, 76.542664%, 80.360413%)" offset="0.621094"/><stop stop-opacity="0.7" stop-color="rgb(44.676208%, 76.509094%, 79.727173%)" offset="0.625"/><stop stop-opacity="0.7" stop-color="rgb(45.263672%, 76.475525%, 79.092407%)" offset="0.628906"/><stop stop-opacity="0.7" stop-color="rgb(45.851135%, 76.441956%, 78.459167%)" offset="0.632813"/><stop stop-opacity="0.7" stop-color="rgb(46.437073%, 76.40686%, 77.825928%)" offset="0.636719"/><stop stop-opacity="0.7" stop-color="rgb(47.024536%, 76.373291%, 77.192688%)" offset="0.640625"/><stop stop-opacity="0.7" stop-color="rgb(47.610474%, 76.338196%, 76.557922%)" offset="0.644531"/><stop stop-opacity="0.7" stop-color="rgb(48.197937%, 76.304626%, 75.924683%)" offset="0.648438"/><stop stop-opacity="0.7" stop-color="rgb(48.783875%, 76.271057%, 75.291443%)" offset="0.652344"/><stop stop-opacity="0.7" stop-color="rgb(49.371338%, 76.237488%, 74.658203%)" offset="0.65625"/><stop stop-opacity="0.7" stop-color="rgb(49.957275%, 76.202393%, 74.024963%)" offset="0.660156"/><stop stop-opacity="0.7" stop-color="rgb(50.544739%, 76.168823%, 73.391724%)" offset="0.664063"/><stop stop-opacity="0.7" stop-color="rgb(51.130676%, 76.135254%, 72.756958%)" offset="0.667969"/><stop stop-opacity="0.7" stop-color="rgb(51.71814%, 76.101685%, 72.123718%)" offset="0.671875"/><stop stop-opacity="0.7" stop-color="rgb(52.304077%, 76.066589%, 71.490479%)" offset="0.675781"/><stop stop-opacity="0.7" stop-color="rgb(52.891541%, 76.03302%, 70.857239%)" offset="0.679688"/><stop stop-opacity="0.7" stop-color="rgb(53.477478%, 75.997925%, 70.223999%)" offset="0.683594"/><stop stop-opacity="0.7" stop-color="rgb(54.064941%, 75.964355%, 69.590759%)" offset="0.6875"/><stop stop-opacity="0.7" stop-color="rgb(54.652405%, 75.930786%, 68.955994%)" offset="0.691406"/><stop stop-opacity="0.7" stop-color="rgb(55.239868%, 75.897217%, 68.322754%)" offset="0.695313"/><stop stop-opacity="0.7" stop-color="rgb(55.825806%, 75.862122%, 67.689514%)" offset="0.699219"/><stop stop-opacity="0.7" stop-color="rgb(56.413269%, 75.828552%, 67.056274%)" offset="0.703125"/><stop stop-opacity="0.7" stop-color="rgb(56.999207%, 75.793457%, 66.421509%)" offset="0.707031"/><stop stop-opacity="0.7" stop-color="rgb(57.58667%, 75.759888%, 65.788269%)" offset="0.710938"/><stop stop-opacity="0.7" stop-color="rgb(58.172607%, 75.726318%, 65.155029%)" offset="0.714844"/><stop stop-opacity="0.7" stop-color="rgb(58.760071%, 75.692749%, 64.52179%)" offset="0.71875"/><stop stop-opacity="0.7" stop-color="rgb(59.346008%, 75.657654%, 63.88855%)" offset="0.722656"/><stop stop-opacity="0.7" stop-color="rgb(59.933472%, 75.624084%, 63.25531%)" offset="0.726563"/><stop stop-opacity="0.7" stop-color="rgb(60.519409%, 75.588989%, 62.620544%)" offset="0.730469"/><stop stop-opacity="0.7" stop-color="rgb(61.106873%, 75.55542%, 61.987305%)" offset="0.734375"/><stop stop-opacity="0.7" stop-color="rgb(61.69281%, 75.521851%, 61.354065%)" offset="0.738281"/><stop stop-opacity="0.7" stop-color="rgb(62.280273%, 75.488281%, 60.720825%)" offset="0.742188"/><stop stop-opacity="0.7" stop-color="rgb(62.867737%, 75.453186%, 60.087585%)" offset="0.746094"/><stop stop-opacity="0.7" stop-color="rgb(63.4552%, 75.419617%, 59.454346%)" offset="0.75"/><stop stop-opacity="0.7" stop-color="rgb(64.041138%, 75.386047%, 58.81958%)" offset="0.753906"/><stop stop-opacity="0.7" stop-color="rgb(64.628601%, 75.352478%, 58.18634%)" offset="0.757813"/><stop stop-opacity="0.7" stop-color="rgb(65.214539%, 75.317383%, 57.553101%)" offset="0.761719"/><stop stop-opacity="0.7" stop-color="rgb(65.802002%, 75.283813%, 56.919861%)" offset="0.765625"/><stop stop-opacity="0.7" stop-color="rgb(66.387939%, 75.248718%, 56.286621%)" offset="0.769531"/><stop stop-opacity="0.7" stop-color="rgb(66.975403%, 75.215149%, 55.653381%)" offset="0.773438"/><stop stop-opacity="0.7" stop-color="rgb(67.56134%, 75.18158%, 55.018616%)" offset="0.777344"/><stop stop-opacity="0.7" stop-color="rgb(68.148804%, 75.14801%, 54.385376%)" offset="0.78125"/><stop stop-opacity="0.7" stop-color="rgb(68.734741%, 75.112915%, 53.752136%)" offset="0.785156"/><stop stop-opacity="0.7" stop-color="rgb(69.322205%, 75.079346%, 53.118896%)" offset="0.789063"/><stop stop-opacity="0.7" stop-color="rgb(69.908142%, 75.04425%, 52.484131%)" offset="0.792969"/><stop stop-opacity="0.7" stop-color="rgb(70.495605%, 75.010681%, 51.850891%)" offset="0.796875"/><stop stop-opacity="0.7" stop-color="rgb(71.081543%, 74.977112%, 51.217651%)" offset="0.800781"/><stop stop-opacity="0.7" stop-color="rgb(71.669006%, 74.943542%, 50.584412%)" offset="0.804688"/><stop stop-opacity="0.7" stop-color="rgb(72.25647%, 74.908447%, 49.951172%)" offset="0.808594"/><stop stop-opacity="0.7" stop-color="rgb(72.843933%, 74.874878%, 49.317932%)" offset="0.8125"/><stop stop-opacity="0.7" stop-color="rgb(73.429871%, 74.841309%, 48.683167%)" offset="0.816406"/><stop stop-opacity="0.7" stop-color="rgb(74.017334%, 74.807739%, 48.049927%)" offset="0.820313"/><stop stop-opacity="0.7" stop-color="rgb(74.603271%, 74.772644%, 47.416687%)" offset="0.824219"/><stop stop-opacity="0.7" stop-color="rgb(75.190735%, 74.739075%, 46.783447%)" offset="0.828125"/><stop stop-opacity="0.7" stop-color="rgb(75.776672%, 74.703979%, 46.150208%)" offset="0.832031"/><stop stop-opacity="0.7" stop-color="rgb(76.364136%, 74.67041%, 45.516968%)" offset="0.835938"/><stop stop-opacity="0.7" stop-color="rgb(76.950073%, 74.636841%, 44.882202%)" offset="0.839844"/><stop stop-opacity="0.7" stop-color="rgb(77.537537%, 74.603271%, 44.248962%)" offset="0.84375"/><stop stop-opacity="0.7" stop-color="rgb(78.123474%, 74.568176%, 43.615723%)" offset="0.847656"/><stop stop-opacity="0.7" stop-color="rgb(78.710938%, 74.534607%, 42.982483%)" offset="0.851563"/><stop stop-opacity="0.7" stop-color="rgb(79.296875%, 74.499512%, 42.347717%)" offset="0.855469"/><stop stop-opacity="0.7" stop-color="rgb(79.884338%, 74.465942%, 41.714478%)" offset="0.859375"/><stop stop-opacity="0.7" stop-color="rgb(80.470276%, 74.432373%, 41.081238%)" offset="0.863281"/><stop stop-opacity="0.7" stop-color="rgb(81.057739%, 74.398804%, 40.447998%)" offset="0.867188"/><stop stop-opacity="0.7" stop-color="rgb(81.645203%, 74.363708%, 39.814758%)" offset="0.871094"/><stop stop-opacity="0.7" stop-color="rgb(82.232666%, 74.330139%, 39.181519%)" offset="0.875"/><stop stop-opacity="0.7" stop-color="rgb(82.818604%, 74.295044%, 38.546753%)" offset="0.878906"/><stop stop-opacity="0.7" stop-color="rgb(83.406067%, 74.261475%, 37.913513%)" offset="0.882813"/><stop stop-opacity="0.7" stop-color="rgb(83.992004%, 74.227905%, 37.280273%)" offset="0.886719"/><stop stop-opacity="0.7" stop-color="rgb(84.579468%, 74.194336%, 36.647034%)" offset="0.890625"/><stop stop-opacity="0.7" stop-color="rgb(85.165405%, 74.159241%, 36.013794%)" offset="0.894531"/><stop stop-opacity="0.7" stop-color="rgb(85.752869%, 74.125671%, 35.380554%)" offset="0.898438"/><stop stop-opacity="0.7" stop-color="rgb(86.338806%, 74.092102%, 34.745789%)" offset="0.902344"/><stop stop-opacity="0.7" stop-color="rgb(86.92627%, 74.058533%, 34.112549%)" offset="0.90625"/><stop stop-opacity="0.7" stop-color="rgb(87.512207%, 74.023438%, 33.479309%)" offset="0.910156"/><stop stop-opacity="0.7" stop-color="rgb(88.09967%, 73.989868%, 32.846069%)" offset="0.914063"/><stop stop-opacity="0.7" stop-color="rgb(88.685608%, 73.954773%, 32.211304%)" offset="0.917969"/><stop stop-opacity="0.7" stop-color="rgb(89.273071%, 73.921204%, 31.578064%)" offset="0.921875"/><stop stop-opacity="0.7" stop-color="rgb(89.860535%, 73.887634%, 30.944824%)" offset="0.925781"/><stop stop-opacity="0.7" stop-color="rgb(90.447998%, 73.854065%, 30.311584%)" offset="0.929688"/><stop stop-opacity="0.7" stop-color="rgb(91.033936%, 73.81897%, 29.678345%)" offset="0.933594"/><stop stop-opacity="0.7" stop-color="rgb(91.621399%, 73.7854%, 29.045105%)" offset="0.9375"/><stop stop-opacity="0.7" stop-color="rgb(92.207336%, 73.750305%, 28.410339%)" offset="0.941406"/><stop stop-opacity="0.7" stop-color="rgb(92.7948%, 73.716736%, 27.7771%)" offset="0.945313"/><stop stop-opacity="0.7" stop-color="rgb(93.380737%, 73.683167%, 27.14386%)" offset="0.949219"/><stop stop-opacity="0.7" stop-color="rgb(93.968201%, 73.649597%, 26.51062%)" offset="0.953125"/><stop stop-opacity="0.7" stop-color="rgb(94.554138%, 73.614502%, 25.87738%)" offset="0.957031"/><stop stop-opacity="0.7" stop-color="rgb(95.141602%, 73.580933%, 25.244141%)" offset="0.960938"/><stop stop-opacity="0.7" stop-color="rgb(95.727539%, 73.545837%, 24.609375%)" offset="0.964844"/><stop stop-opacity="0.7" stop-color="rgb(96.315002%, 73.512268%, 23.976135%)" offset="0.96875"/><stop stop-opacity="0.7" stop-color="rgb(96.90094%, 73.478699%, 23.342896%)" offset="0.972656"/><stop stop-opacity="0.7" stop-color="rgb(97.488403%, 73.445129%, 22.709656%)" offset="0.976563"/><stop stop-opacity="0.7" stop-color="rgb(98.074341%, 73.410034%, 22.076416%)" offset="0.980469"/><stop stop-opacity="0.7" stop-color="rgb(98.661804%, 73.376465%, 21.443176%)" offset="0.984375"/><stop stop-opacity="0.7" stop-color="rgb(99.249268%, 73.342896%, 20.808411%)" offset="0.988281"/><stop stop-opacity="0.7" stop-color="rgb(99.836731%, 73.309326%, 20.175171%)" offset="0.992188"/><stop stop-opacity="0.7" stop-color="rgb(99.917603%, 73.303223%, 20.08667%)" offset="1"/></linearGradient></defs><path fill="#121838" d="M 332.183594 227.515625 C 332.183594 228.273438 332.121094 229.035156 331.996094 229.792969 C 331.871094 230.550781 331.6875 231.308594 331.4375 232.066406 C 331.1875 232.820312 330.878906 233.574219 330.507812 234.328125 C 330.136719 235.078125 329.703125 235.828125 329.210938 236.574219 C 328.714844 237.316406 328.160156 238.058594 327.542969 238.796875 C 326.929688 239.53125 326.253906 240.265625 325.519531 240.992188 C 324.785156 241.71875 323.988281 242.441406 323.136719 243.15625 C 322.28125 243.871094 321.371094 244.578125 320.402344 245.28125 C 319.433594 245.984375 318.40625 246.675781 317.324219 247.363281 C 316.242188 248.050781 315.105469 248.730469 313.910156 249.398438 C 312.714844 250.070312 311.46875 250.730469 310.164062 251.382812 C 308.863281 252.035156 307.507812 252.675781 306.101562 253.308594 C 304.695312 253.9375 303.238281 254.558594 301.730469 255.171875 C 300.21875 255.78125 298.664062 256.378906 297.054688 256.96875 C 295.449219 257.554688 293.796875 258.128906 292.09375 258.691406 C 290.394531 259.253906 288.648438 259.804688 286.855469 260.34375 C 285.066406 260.878906 283.234375 261.402344 281.355469 261.914062 C 279.480469 262.425781 277.5625 262.921875 275.605469 263.402344 C 273.648438 263.882812 271.652344 264.351562 269.617188 264.804688 C 267.582031 265.257812 265.511719 265.695312 263.40625 266.117188 C 261.300781 266.539062 259.164062 266.945312 256.988281 267.335938 C 254.816406 267.726562 252.613281 268.101562 250.382812 268.457031 C 248.148438 268.816406 245.886719 269.15625 243.597656 269.484375 C 241.308594 269.808594 238.992188 270.117188 236.652344 270.40625 C 234.3125 270.695312 231.949219 270.96875 229.566406 271.226562 C 227.183594 271.484375 224.777344 271.722656 222.355469 271.941406 C 219.929688 272.160156 217.492188 272.363281 215.035156 272.550781 C 212.578125 272.734375 210.105469 272.898438 207.621094 273.046875 C 205.140625 273.195312 202.644531 273.328125 200.140625 273.4375 C 197.632812 273.550781 195.121094 273.640625 192.601562 273.71875 C 190.082031 273.792969 187.554688 273.847656 185.027344 273.882812 C 182.496094 273.921875 179.964844 273.941406 177.433594 273.941406 C 174.898438 273.941406 172.367188 273.921875 169.839844 273.882812 C 167.308594 273.847656 164.785156 273.792969 162.265625 273.71875 C 159.742188 273.640625 157.230469 273.550781 154.726562 273.4375 C 152.222656 273.328125 149.726562 273.195312 147.242188 273.046875 C 144.757812 272.898438 142.289062 272.734375 139.832031 272.550781 C 137.375 272.363281 134.933594 272.160156 132.511719 271.941406 C 130.085938 271.722656 127.683594 271.484375 125.296875 271.226562 C 122.914062 270.96875 120.550781 270.695312 118.210938 270.40625 C 115.871094 270.117188 113.558594 269.808594 111.269531 269.484375 C 108.980469 269.15625 106.71875 268.816406 104.484375 268.457031 C 102.25 268.101562 100.046875 267.726562 97.875 267.335938 C 95.703125 266.945312 93.5625 266.539062 91.457031 266.117188 C 89.351562 265.695312 87.28125 265.257812 85.25 264.804688 C 83.214844 264.351562 81.21875 263.882812 79.261719 263.402344 C 77.300781 262.921875 75.386719 262.425781 73.507812 261.914062 C 71.632812 261.402344 69.796875 260.878906 68.007812 260.34375 C 66.21875 259.804688 64.472656 259.253906 62.769531 258.691406 C 61.070312 258.128906 59.414062 257.554688 57.808594 256.96875 C 56.203125 256.378906 54.644531 255.78125 53.136719 255.171875 C 51.628906 254.558594 50.167969 253.9375 48.761719 253.308594 C 47.355469 252.675781 46 252.035156 44.699219 251.382812 C 43.398438 250.730469 42.148438 250.070312 40.957031 249.398438 C 39.761719 248.730469 38.621094 248.050781 37.539062 247.363281 C 36.457031 246.675781 35.429688 245.984375 34.460938 245.28125 C 33.492188 244.578125 32.582031 243.871094 31.730469 243.15625 C 30.875 242.441406 30.082031 241.71875 29.347656 240.992188 C 28.609375 240.265625 27.9375 239.53125 27.320312 238.796875 C 26.703125 238.058594 26.148438 237.316406 25.65625 236.574219 C 25.160156 235.828125 24.730469 235.078125 24.359375 234.328125 C 23.984375 233.574219 23.675781 232.820312 23.425781 232.066406 C 23.179688 231.308594 22.992188 230.550781 22.867188 229.792969 C 22.746094 229.035156 22.683594 228.273438 22.683594 227.515625 C 22.683594 226.753906 22.746094 225.996094 22.867188 225.238281 C 22.992188 224.480469 23.179688 223.722656 23.425781 222.964844 C 23.675781 222.207031 23.984375 221.453125 24.359375 220.703125 C 24.730469 219.953125 25.160156 219.203125 25.65625 218.457031 C 26.148438 217.714844 26.703125 216.972656 27.320312 216.234375 C 27.9375 215.496094 28.609375 214.765625 29.347656 214.039062 C 30.082031 213.3125 30.875 212.589844 31.730469 211.875 C 32.582031 211.160156 33.492188 210.453125 34.460938 209.75 C 35.429688 209.046875 36.457031 208.351562 37.539062 207.667969 C 38.621094 206.980469 39.761719 206.300781 40.957031 205.628906 C 42.148438 204.960938 43.398438 204.300781 44.699219 203.648438 C 46 202.996094 47.355469 202.355469 48.761719 201.722656 C 50.167969 201.089844 51.628906 200.46875 53.136719 199.859375 C 54.644531 199.25 56.203125 198.652344 57.808594 198.0625 C 59.414062 197.476562 61.070312 196.902344 62.769531 196.339844 C 64.472656 195.773438 66.21875 195.226562 68.007812 194.6875 C 69.796875 194.152344 71.632812 193.625 73.507812 193.117188 C 75.386719 192.605469 77.300781 192.109375 79.261719 191.628906 C 81.21875 191.144531 83.214844 190.679688 85.25 190.226562 C 87.28125 189.773438 89.351562 189.335938 91.457031 188.914062 C 93.5625 188.492188 95.703125 188.085938 97.875 187.695312 C 100.046875 187.304688 102.25 186.929688 104.484375 186.570312 C 106.71875 186.214844 108.980469 185.871094 111.269531 185.546875 C 113.558594 185.222656 115.871094 184.914062 118.210938 184.625 C 120.550781 184.332031 122.914062 184.058594 125.296875 183.804688 C 127.683594 183.546875 130.085938 183.308594 132.511719 183.089844 C 134.933594 182.867188 137.375 182.667969 139.832031 182.480469 C 142.289062 182.296875 144.757812 182.128906 147.242188 181.984375 C 149.726562 181.835938 152.222656 181.703125 154.726562 181.59375 C 157.230469 181.480469 159.742188 181.386719 162.265625 181.3125 C 164.785156 181.238281 167.308594 181.183594 169.839844 181.144531 C 172.367188 181.109375 174.898438 181.089844 177.433594 181.089844 C 179.964844 181.089844 182.496094 181.109375 185.027344 181.144531 C 187.554688 181.183594 190.082031 181.238281 192.601562 181.3125 C 195.121094 181.386719 197.632812 181.480469 200.140625 181.59375 C 202.644531 181.703125 205.140625 181.835938 207.621094 181.980469 C 210.105469 182.128906 212.578125 182.296875 215.035156 182.480469 C 217.492188 182.667969 219.929688 182.867188 222.355469 183.089844 C 224.777344 183.308594 227.183594 183.546875 229.566406 183.804688 C 231.949219 184.058594 234.3125 184.332031 236.652344 184.625 C 238.992188 184.914062 241.308594 185.222656 243.597656 185.546875 C 245.886719 185.871094 248.148438 186.214844 250.382812 186.570312 C 252.613281 186.929688 254.816406 187.304688 256.988281 187.695312 C 259.164062 188.085938 261.300781 188.492188 263.40625 188.914062 C 265.511719 189.335938 267.582031 189.773438 269.617188 190.226562 C 271.652344 190.679688 273.648438 191.144531 275.605469 191.628906 C 277.5625 192.109375 279.480469 192.605469 281.355469 193.117188 C 283.234375 193.625 285.066406 194.152344 286.855469 194.6875 C 288.648438 195.226562 290.394531 195.773438 292.09375 196.339844 C 293.796875 196.902344 295.449219 197.476562 297.054688 198.0625 C 298.664062 198.652344 300.21875 199.25 301.730469 199.859375 C 303.238281 200.46875 304.695312 201.089844 306.101562 201.722656 C 307.507812 202.355469 308.863281 202.996094 310.164062 203.648438 C 311.46875 204.300781 312.714844 204.960938 313.910156 205.628906 C 315.105469 206.300781 316.242188 206.980469 317.324219 207.667969 C 318.40625 208.351562 319.433594 209.046875 320.402344 209.75 C 321.371094 210.453125 322.28125 211.160156 323.136719 211.875 C 323.988281 212.589844 324.785156 213.3125 325.519531 214.039062 C 326.253906 214.765625 326.929688 215.496094 327.542969 216.234375 C 328.160156 216.972656 328.714844 217.714844 329.210938 218.457031 C 329.703125 219.203125 330.136719 219.953125 330.507812 220.703125 C 330.878906 221.453125 331.1875 222.207031 331.4375 222.964844 C 331.6875 223.722656 331.871094 224.480469 331.996094 225.238281 C 332.121094 225.996094 332.183594 226.753906 332.183594 227.515625 Z M 332.183594 227.515625 " fill-opacity="1" fill-rule="nonzero"/><path stroke-linecap="butt" transform="matrix(1.5475, 0, 0, 1.5475, -54.692448, -112.934573)" fill="none" stroke-linejoin="miter" d="M 259.999187 220.000152 C 259.999187 220.573153 259.956275 221.146153 259.867927 221.71663 C 259.779578 222.289631 259.645794 222.860108 259.469098 223.430584 C 259.294926 224.001061 259.072793 224.569013 258.810273 225.134441 C 258.545228 225.702394 258.237272 226.265298 257.886404 226.828202 C 257.535535 227.391106 257.141755 227.948961 256.702538 228.504292 C 256.265846 229.059624 255.786242 229.612431 255.263726 230.160189 C 254.741209 230.707948 254.175781 231.250658 253.569965 231.790844 C 252.96415 232.331029 252.315422 232.863643 251.626306 233.393732 C 250.93719 233.92382 250.207687 234.446337 249.437796 234.963804 C 248.667905 235.481272 247.860151 235.993691 247.012008 236.498538 C 246.163866 237.003385 245.275336 237.503183 244.348943 237.992884 C 243.425073 238.485109 242.460816 238.969762 241.46122 239.444318 C 240.461624 239.921398 239.424164 240.388381 238.353889 240.850316 C 237.28109 241.309726 236.172952 241.761564 235.031999 242.203304 C 233.888521 242.647569 232.714753 243.079213 231.505646 243.505809 C 230.296538 243.92988 229.054615 244.343854 227.782402 244.747731 C 226.507664 245.154133 225.20516 245.547913 223.872365 245.934121 C 222.537046 246.317804 221.17396 246.69139 219.783108 247.05488 C 218.392256 247.41837 216.973637 247.771762 215.527251 248.112534 C 214.080866 248.453305 212.609238 248.78398 211.112368 249.102033 C 209.615498 249.420086 208.09591 249.725518 206.551079 250.020854 C 205.006249 250.316189 203.441224 250.596379 201.853482 250.866472 C 200.265739 251.136565 198.657803 251.394036 197.032197 251.638887 C 195.404067 251.883738 193.758267 252.115967 192.094797 252.335575 C 190.431328 252.555183 188.752713 252.762171 187.058953 252.954012 C 185.362668 253.145854 183.653762 253.327599 181.932236 253.491674 C 180.208185 253.658273 178.474036 253.812251 176.727267 253.951084 C 174.980498 254.089917 173.226156 254.216129 171.459193 254.327195 C 169.694754 254.438261 167.920219 254.536706 166.140635 254.620006 C 164.358526 254.70583 162.573893 254.776508 160.781688 254.832042 C 158.989483 254.887575 157.194753 254.930487 155.397499 254.958253 C 153.600245 254.98602 151.800467 255.001165 150.000689 255.001165 C 148.200911 255.001165 146.401133 254.98602 144.601355 254.958253 C 142.804101 254.930487 141.009372 254.887575 139.217166 254.832042 C 137.427485 254.776508 135.640328 254.70583 133.860744 254.620006 C 132.078636 254.536706 130.306624 254.438261 128.539661 254.327195 C 126.775222 254.216129 125.018356 254.089917 123.271587 253.951084 C 121.524818 253.812251 119.79067 253.658273 118.069143 253.491674 C 116.345092 253.327599 114.636186 253.145854 112.942426 252.954012 C 111.246142 252.762171 109.567527 252.555183 107.904057 252.335575 C 106.240588 252.115967 104.597312 251.883738 102.969182 251.638887 C 101.341052 251.394036 99.733115 251.136565 98.145373 250.866472 C 96.55763 250.596379 94.992606 250.316189 93.447775 250.020854 C 91.905469 249.725518 90.383357 249.420086 88.886486 249.102033 C 87.389616 248.78398 85.917989 248.453305 84.474127 248.112534 C 83.027742 247.771762 81.609123 247.41837 80.215746 247.05488 C 78.824894 246.69139 77.461808 246.317804 76.129013 245.934121 C 74.793694 245.547913 73.49119 245.154133 72.218977 244.747731 C 70.944239 244.343854 69.704841 243.92988 68.495733 243.503284 C 67.286626 243.079213 66.110333 242.647569 64.96938 242.203304 C 63.825902 241.761564 62.720288 241.309726 61.647489 240.850316 C 60.57469 240.388381 59.53723 239.921398 58.537634 239.444318 C 57.538038 238.969762 56.576305 238.485109 55.649912 237.992884 C 54.723518 237.503183 53.837513 237.003385 52.98937 236.498538 C 52.141228 235.993691 51.330949 235.481272 50.561058 234.963804 C 49.791167 234.446337 49.061664 233.92382 48.372548 233.393732 C 47.683433 232.863643 47.037229 232.331029 46.428889 231.790844 C 45.823073 231.250658 45.260169 230.707948 44.737653 230.160189 C 44.215137 229.612431 43.733008 229.059624 43.296316 228.504292 C 42.859624 227.948961 42.465843 227.391106 42.112451 226.828202 C 41.761582 226.265298 41.453626 225.702394 41.191106 225.134441 C 40.926061 224.569013 40.706453 224.001061 40.529757 223.430584 C 40.35306 222.860108 40.2218 222.289631 40.133452 221.71663 C 40.045104 221.146153 39.999668 220.573153 39.999668 220.000152 C 39.999668 219.427151 40.045104 218.85415 40.133452 218.283673 C 40.2218 217.710672 40.35306 217.140196 40.529757 216.569719 C 40.706453 215.999243 40.926061 215.43129 41.191106 214.863338 C 41.453626 214.29791 41.761582 213.732481 42.112451 213.172102 C 42.465843 212.609198 42.859624 212.051342 43.296316 211.496011 C 43.733008 210.94068 44.215137 210.387873 44.737653 209.840114 C 45.260169 209.292356 45.823073 208.747121 46.428889 208.20946 C 47.037229 207.669274 47.683433 207.134137 48.372548 206.606572 C 49.061664 206.076483 49.791167 205.553967 50.561058 205.036499 C 51.330949 204.516507 52.141228 204.006612 52.98937 203.501765 C 53.837513 202.996919 54.723518 202.497121 55.649912 202.00742 C 56.576305 201.515194 57.538038 201.030541 58.537634 200.555986 C 59.53723 200.078906 60.57469 199.609398 61.647489 199.149988 C 62.720288 198.690578 63.825902 198.23874 64.96938 197.796999 C 66.110333 197.352734 67.286626 196.92109 68.495733 196.494495 C 69.704841 196.070424 70.944239 195.65645 72.218977 195.250048 C 73.49119 194.846171 74.793694 194.45239 76.129013 194.066183 C 77.461808 193.682499 78.824894 193.308913 80.215746 192.945423 C 81.609123 192.581934 83.027742 192.228541 84.474127 191.88777 C 85.917989 191.546998 87.389616 191.216324 88.886486 190.898271 C 90.383357 190.580217 91.905469 190.274785 93.447775 189.97945 C 94.992606 189.684115 96.55763 189.403925 98.145373 189.133832 C 99.733115 188.863739 101.341052 188.606267 102.969182 188.361416 C 104.597312 188.116566 106.240588 187.884336 107.904057 187.664728 C 109.567527 187.44512 111.246142 187.238133 112.942426 187.046291 C 114.636186 186.851925 116.345092 186.672705 118.069143 186.506105 C 119.79067 186.34203 121.524818 186.188052 123.271587 186.049219 C 125.018356 185.910386 126.775222 185.784175 128.539661 185.673108 C 130.306624 185.559518 132.078636 185.463597 133.860744 185.377773 C 135.640328 185.294474 137.427485 185.223795 139.217166 185.168262 C 141.009372 185.112729 142.804101 185.069817 144.601355 185.04205 C 146.401133 185.014284 148.200911 184.999138 150.000689 184.999138 C 151.800467 184.999138 153.600245 185.014284 155.397499 185.04205 C 157.194753 185.069817 158.989483 185.112729 160.781688 185.168262 C 162.573893 185.223795 164.358526 185.294474 166.140635 185.377773 C 167.920219 185.463597 169.694754 185.559518 171.459193 185.673108 C 173.226156 185.784175 174.980498 185.910386 176.727267 186.049219 C 178.474036 186.188052 180.208185 186.34203 181.932236 186.506105 C 183.653762 186.672705 185.362668 186.851925 187.058953 187.046291 C 188.752713 187.238133 190.431328 187.44512 192.094797 187.664728 C 193.758267 187.884336 195.404067 188.116566 197.032197 188.361416 C 198.657803 188.606267 200.265739 188.863739 201.853482 189.133832 C 203.441224 189.403925 205.006249 189.684115 206.551079 189.97945 C 208.09591 190.274785 209.615498 190.580217 211.112368 190.898271 C 212.609238 191.216324 214.080866 191.546998 215.527251 191.88777 C 216.973637 192.228541 218.392256 192.581934 219.783108 192.945423 C 221.17396 193.308913 222.537046 193.682499 223.872365 194.066183 C 225.20516 194.45239 226.507664 194.846171 227.782402 195.250048 C 229.054615 195.65645 230.296538 196.070424 231.505646 196.494495 C 232.714753 196.92109 233.888521 197.352734 235.031999 197.796999 C 236.172952 198.23874 237.28109 198.690578 238.353889 199.149988 C 239.424164 199.609398 240.461624 200.078906 241.46122 200.555986 C 242.460816 201.030541 243.425073 201.515194 244.348943 202.00742 C 245.275336 202.497121 246.163866 202.996919 247.012008 203.501765 C 247.860151 204.006612 248.667905 204.516507 249.437796 205.036499 C 250.207687 205.553967 250.93719 206.076483 251.626306 206.606572 C 252.315422 207.134137 252.96415 207.669274 253.569965 208.20946 C 254.175781 208.747121 254.741209 209.292356 255.263726 209.840114 C 255.786242 210.387873 256.265846 210.94068 256.702538 211.496011 C 257.141755 212.051342 257.535535 212.609198 257.886404 213.172102 C 258.237272 213.732481 258.545228 214.29791 258.810273 214.863338 C 259.072793 215.43129 259.294926 215.999243 259.469098 216.569719 C 259.645794 217.140196 259.779578 217.710672 259.867927 218.283673 C 259.956275 218.85415 259.999187 219.427151 259.999187 220.000152 Z M 259.999187 220.000152 " stroke="url(#120fcbabe6)" stroke-width="3" stroke-miterlimit="4"/><path fill="#ffbb33" d="M 231.59375 72.765625 L 308.96875 72.765625 C 309.476562 72.765625 309.980469 72.816406 310.480469 72.914062 C 310.976562 73.011719 311.460938 73.160156 311.929688 73.355469 C 312.398438 73.546875 312.847656 73.789062 313.269531 74.070312 C 313.691406 74.351562 314.082031 74.671875 314.441406 75.03125 C 314.800781 75.390625 315.121094 75.78125 315.402344 76.203125 C 315.6875 76.625 315.925781 77.074219 316.117188 77.542969 C 316.3125 78.011719 316.460938 78.496094 316.558594 78.992188 C 316.65625 79.492188 316.707031 79.996094 316.707031 80.503906 L 316.707031 157.878906 C 316.707031 158.386719 316.65625 158.890625 316.558594 159.386719 C 316.460938 159.886719 316.3125 160.371094 316.117188 160.839844 C 315.925781 161.308594 315.6875 161.753906 315.402344 162.175781 C 315.121094 162.597656 314.800781 162.988281 314.441406 163.347656 C 314.082031 163.707031 313.691406 164.027344 313.269531 164.3125 C 312.847656 164.59375 312.398438 164.832031 311.929688 165.027344 C 311.460938 165.222656 310.976562 165.367188 310.480469 165.464844 C 309.980469 165.566406 309.476562 165.617188 308.96875 165.617188 L 231.59375 165.617188 C 231.085938 165.617188 230.582031 165.566406 230.085938 165.464844 C 229.585938 165.367188 229.101562 165.222656 228.632812 165.027344 C 228.164062 164.832031 227.71875 164.59375 227.296875 164.3125 C 226.875 164.027344 226.484375 163.707031 226.125 163.347656 C 225.765625 162.988281 225.445312 162.597656 225.160156 162.175781 C 224.878906 161.753906 224.640625 161.308594 224.445312 160.839844 C 224.253906 160.371094 224.105469 159.886719 224.007812 159.386719 C 223.90625 158.890625 223.859375 158.386719 223.859375 157.878906 L 223.859375 80.503906 C 223.859375 79.996094 223.90625 79.492188 224.007812 78.992188 C 224.105469 78.496094 224.253906 78.011719 224.445312 77.542969 C 224.640625 77.074219 224.878906 76.625 225.160156 76.203125 C 225.445312 75.78125 225.765625 75.390625 226.125 75.03125 C 226.484375 74.671875 226.875 74.351562 227.296875 74.070312 C 227.71875 73.789062 228.164062 73.546875 228.632812 73.355469 C 229.101562 73.160156 229.585938 73.011719 230.085938 72.914062 C 230.582031 72.816406 231.085938 72.765625 231.59375 72.765625 Z M 231.59375 72.765625 " fill-opacity="0.9" fill-rule="nonzero"/><path fill="#ffbb33" d="M 231.59375 88.242188 L 308.96875 88.242188 C 309.476562 88.242188 309.980469 88.289062 310.480469 88.390625 C 310.976562 88.488281 311.460938 88.636719 311.929688 88.828125 C 312.398438 89.023438 312.847656 89.261719 313.269531 89.542969 C 313.691406 89.828125 314.082031 90.148438 314.441406 90.507812 C 314.800781 90.867188 315.121094 91.257812 315.402344 91.679688 C 315.6875 92.101562 315.925781 92.546875 316.117188 93.015625 C 316.3125 93.484375 316.460938 93.96875 316.558594 94.46875 C 316.65625 94.964844 316.707031 95.46875 316.707031 95.976562 L 316.707031 173.351562 C 316.707031 173.859375 316.65625 174.363281 316.558594 174.863281 C 316.460938 175.359375 316.3125 175.84375 316.117188 176.3125 C 315.925781 176.785156 315.6875 177.230469 315.402344 177.652344 C 315.121094 178.074219 314.800781 178.464844 314.441406 178.824219 C 314.082031 179.183594 313.691406 179.503906 313.269531 179.785156 C 312.847656 180.070312 312.398438 180.308594 311.929688 180.5 C 311.460938 180.695312 310.976562 180.84375 310.480469 180.941406 C 309.980469 181.039062 309.476562 181.089844 308.96875 181.089844 L 231.59375 181.089844 C 231.085938 181.089844 230.582031 181.039062 230.085938 180.941406 C 229.585938 180.84375 229.101562 180.695312 228.632812 180.5 C 228.164062 180.308594 227.71875 180.070312 227.296875 179.785156 C 226.875 179.503906 226.484375 179.183594 226.125 178.824219 C 225.765625 178.464844 225.445312 178.074219 225.160156 177.652344 C 224.878906 177.230469 224.640625 176.785156 224.445312 176.3125 C 224.253906 175.84375 224.105469 175.359375 224.007812 174.863281 C 223.90625 174.363281 223.859375 173.859375 223.859375 173.351562 L 223.859375 95.976562 C 223.859375 95.46875 223.90625 94.964844 224.007812 94.46875 C 224.105469 93.96875 224.253906 93.484375 224.445312 93.015625 C 224.640625 92.546875 224.878906 92.101562 225.160156 91.679688 C 225.445312 91.257812 225.765625 90.867188 226.125 90.507812 C 226.484375 90.148438 226.875 89.828125 227.296875 89.542969 C 227.71875 89.261719 228.164062 89.023438 228.632812 88.828125 C 229.101562 88.636719 229.585938 88.488281 230.085938 88.390625 C 230.582031 88.289062 231.085938 88.242188 231.59375 88.242188 Z M 231.59375 88.242188 " fill-opacity="0.7" fill-rule="nonzero"/><path fill="#ffbb33" d="M 231.59375 103.714844 L 308.96875 103.714844 C 309.476562 103.714844 309.980469 103.765625 310.480469 103.863281 C 310.976562 103.964844 311.460938 104.109375 311.929688 104.304688 C 312.398438 104.5 312.847656 104.738281 313.269531 105.019531 C 313.691406 105.300781 314.082031 105.621094 314.441406 105.980469 C 314.800781 106.339844 315.121094 106.730469 315.402344 107.152344 C 315.6875 107.578125 315.925781 108.023438 316.117188 108.492188 C 316.3125 108.960938 316.460938 109.445312 316.558594 109.945312 C 316.65625 110.441406 316.707031 110.945312 316.707031 111.453125 L 316.707031 188.828125 C 316.707031 189.335938 316.65625 189.839844 316.558594 190.335938 C 316.460938 190.835938 316.3125 191.320312 316.117188 191.789062 C 315.925781 192.257812 315.6875 192.703125 315.402344 193.125 C 315.121094 193.550781 314.800781 193.941406 314.441406 194.300781 C 314.082031 194.660156 313.691406 194.980469 313.269531 195.261719 C 312.847656 195.542969 312.398438 195.78125 311.929688 195.976562 C 311.460938 196.171875 310.976562 196.316406 310.480469 196.417969 C 309.980469 196.515625 309.476562 196.566406 308.96875 196.566406 L 231.59375 196.566406 C 231.085938 196.566406 230.582031 196.515625 230.085938 196.417969 C 229.585938 196.316406 229.101562 196.171875 228.632812 195.976562 C 228.164062 195.78125 227.71875 195.542969 227.296875 195.261719 C 226.875 194.980469 226.484375 194.660156 226.125 194.300781 C 225.765625 193.941406 225.445312 193.550781 225.160156 193.125 C 224.878906 192.703125 224.640625 192.257812 224.445312 191.789062 C 224.253906 191.320312 224.105469 190.835938 224.007812 190.335938 C 223.90625 189.839844 223.859375 189.335938 223.859375 188.828125 L 223.859375 111.453125 C 223.859375 110.945312 223.90625 110.441406 224.007812 109.945312 C 224.105469 109.445312 224.253906 108.960938 224.445312 108.492188 C 224.640625 108.023438 224.878906 107.578125 225.160156 107.152344 C 225.445312 106.730469 225.765625 106.339844 226.125 105.980469 C 226.484375 105.621094 226.875 105.300781 227.296875 105.019531 C 227.71875 104.738281 228.164062 104.5 228.632812 104.304688 C 229.101562 104.109375 229.585938 103.964844 230.085938 103.863281 C 230.582031 103.765625 231.085938 103.714844 231.59375 103.714844 Z M 231.59375 103.714844 " fill-opacity="0.5" fill-rule="nonzero"/><path fill="#42c6ff" d="M 123.269531 119.191406 L 200.644531 119.191406 C 201.152344 119.191406 201.65625 119.238281 202.15625 119.339844 C 202.652344 119.4375 203.136719 119.585938 203.605469 119.78125 C 204.074219 119.972656 204.519531 120.210938 204.945312 120.496094 C 205.367188 120.777344 205.757812 121.097656 206.117188 121.457031 C 206.476562 121.816406 206.796875 122.207031 207.078125 122.628906 C 207.359375 123.050781 207.597656 123.496094 207.792969 123.96875 C 207.988281 124.4375 208.132812 124.921875 208.234375 125.417969 C 208.332031 125.917969 208.382812 126.417969 208.382812 126.929688 L 208.382812 204.304688 C 208.382812 204.8125 208.332031 205.3125 208.234375 205.8125 C 208.132812 206.3125 207.988281 206.792969 207.792969 207.265625 C 207.597656 207.734375 207.359375 208.179688 207.078125 208.601562 C 206.796875 209.023438 206.476562 209.414062 206.117188 209.773438 C 205.757812 210.132812 205.367188 210.453125 204.945312 210.738281 C 204.519531 211.019531 204.074219 211.257812 203.605469 211.453125 C 203.136719 211.644531 202.652344 211.792969 202.15625 211.890625 C 201.65625 211.992188 201.152344 212.039062 200.644531 212.039062 L 123.269531 212.039062 C 122.761719 212.039062 122.257812 211.992188 121.761719 211.890625 C 121.261719 211.792969 120.777344 211.644531 120.308594 211.453125 C 119.839844 211.257812 119.394531 211.019531 118.972656 210.738281 C 118.550781 210.453125 118.15625 210.132812 117.796875 209.773438 C 117.441406 209.414062 117.117188 209.023438 116.835938 208.601562 C 116.554688 208.179688 116.316406 207.734375 116.121094 207.265625 C 115.925781 206.792969 115.78125 206.3125 115.679688 205.8125 C 115.582031 205.3125 115.53125 204.8125 115.53125 204.304688 L 115.53125 126.929688 C 115.53125 126.417969 115.582031 125.917969 115.679688 125.417969 C 115.78125 124.921875 115.925781 124.4375 116.121094 123.96875 C 116.316406 123.496094 116.554688 123.050781 116.835938 122.628906 C 117.117188 122.207031 117.441406 121.816406 117.796875 121.457031 C 118.15625 121.097656 118.550781 120.777344 118.972656 120.496094 C 119.394531 120.210938 119.839844 119.972656 120.308594 119.78125 C 120.777344 119.585938 121.261719 119.4375 121.761719 119.339844 C 122.257812 119.238281 122.761719 119.191406 123.269531 119.191406 Z M 123.269531 119.191406 " fill-opacity="0.9" fill-rule="nonzero"/><path fill="#42c6ff" d="M 123.269531 134.664062 L 200.644531 134.664062 C 201.152344 134.664062 201.65625 134.714844 202.15625 134.8125 C 202.652344 134.914062 203.136719 135.058594 203.605469 135.253906 C 204.074219 135.449219 204.519531 135.6875 204.945312 135.96875 C 205.367188 136.25 205.757812 136.574219 206.117188 136.933594 C 206.476562 137.289062 206.796875 137.683594 207.078125 138.105469 C 207.359375 138.527344 207.597656 138.972656 207.792969 139.441406 C 207.988281 139.910156 208.132812 140.394531 208.234375 140.894531 C 208.332031 141.390625 208.382812 141.894531 208.382812 142.402344 L 208.382812 219.777344 C 208.382812 220.285156 208.332031 220.789062 208.234375 221.289062 C 208.132812 221.785156 207.988281 222.269531 207.792969 222.738281 C 207.597656 223.207031 207.359375 223.652344 207.078125 224.078125 C 206.796875 224.5 206.476562 224.890625 206.117188 225.25 C 205.757812 225.609375 205.367188 225.929688 204.945312 226.210938 C 204.519531 226.492188 204.074219 226.730469 203.605469 226.925781 C 203.136719 227.121094 202.652344 227.265625 202.15625 227.367188 C 201.65625 227.464844 201.152344 227.515625 200.644531 227.515625 L 123.269531 227.515625 C 122.761719 227.515625 122.257812 227.464844 121.761719 227.367188 C 121.261719 227.265625 120.777344 227.121094 120.308594 226.925781 C 119.839844 226.730469 119.394531 226.492188 118.972656 226.210938 C 118.550781 225.929688 118.15625 225.609375 117.796875 225.25 C 117.441406 224.890625 117.117188 224.5 116.835938 224.078125 C 116.554688 223.652344 116.316406 223.207031 116.121094 222.738281 C 115.925781 222.269531 115.78125 221.785156 115.679688 221.289062 C 115.582031 220.789062 115.53125 220.285156 115.53125 219.777344 L 115.53125 142.402344 C 115.53125 141.894531 115.582031 141.390625 115.679688 140.894531 C 115.78125 140.394531 115.925781 139.910156 116.121094 139.441406 C 116.316406 138.972656 116.554688 138.527344 116.835938 138.105469 C 117.117188 137.683594 117.441406 137.289062 117.796875 136.933594 C 118.15625 136.574219 118.550781 136.25 118.972656 135.96875 C 119.394531 135.6875 119.839844 135.449219 120.308594 135.253906 C 120.777344 135.058594 121.261719 134.914062 121.761719 134.8125 C 122.257812 134.714844 122.761719 134.664062 123.269531 134.664062 Z M 123.269531 134.664062 " fill-opacity="0.7" fill-rule="nonzero"/><path fill="#42c6ff" d="M 123.269531 150.140625 L 200.644531 150.140625 C 201.152344 150.140625 201.65625 150.191406 202.15625 150.289062 C 202.652344 150.386719 203.136719 150.535156 203.605469 150.730469 C 204.074219 150.921875 204.519531 151.164062 204.945312 151.445312 C 205.367188 151.726562 205.757812 152.046875 206.117188 152.40625 C 206.476562 152.765625 206.796875 153.15625 207.078125 153.578125 C 207.359375 154 207.597656 154.449219 207.792969 154.917969 C 207.988281 155.386719 208.132812 155.871094 208.234375 156.367188 C 208.332031 156.867188 208.382812 157.371094 208.382812 157.878906 L 208.382812 235.253906 C 208.382812 235.761719 208.332031 236.265625 208.234375 236.761719 C 208.132812 237.261719 207.988281 237.746094 207.792969 238.214844 C 207.597656 238.683594 207.359375 239.128906 207.078125 239.550781 C 206.796875 239.972656 206.476562 240.363281 206.117188 240.722656 C 205.757812 241.082031 205.367188 241.402344 204.945312 241.6875 C 204.519531 241.96875 204.074219 242.207031 203.605469 242.402344 C 203.136719 242.597656 202.652344 242.742188 202.15625 242.839844 C 201.65625 242.941406 201.152344 242.992188 200.644531 242.992188 L 123.269531 242.992188 C 122.761719 242.992188 122.257812 242.941406 121.761719 242.839844 C 121.261719 242.742188 120.777344 242.597656 120.308594 242.402344 C 119.839844 242.207031 119.394531 241.96875 118.972656 241.6875 C 118.550781 241.402344 118.15625 241.082031 117.796875 240.722656 C 117.441406 240.363281 117.117188 239.972656 116.835938 239.550781 C 116.554688 239.128906 116.316406 238.683594 116.121094 238.214844 C 115.925781 237.746094 115.78125 237.261719 115.679688 236.761719 C 115.582031 236.265625 115.53125 235.761719 115.53125 235.253906 L 115.53125 157.878906 C 115.53125 157.371094 115.582031 156.867188 115.679688 156.367188 C 115.78125 155.871094 115.925781 155.386719 116.121094 154.917969 C 116.316406 154.449219 116.554688 154 116.835938 153.578125 C 117.117188 153.15625 117.441406 152.765625 117.796875 152.40625 C 118.15625 152.046875 118.550781 151.726562 118.972656 151.445312 C 119.394531 151.164062 119.839844 150.921875 120.308594 150.730469 C 120.777344 150.535156 121.261719 150.386719 121.761719 150.289062 C 122.257812 150.191406 122.761719 150.140625 123.269531 150.140625 Z M 123.269531 150.140625 " fill-opacity="0.5" fill-rule="nonzero"/><path fill="#e83a95" d="M 185.171875 26.339844 L 262.546875 26.339844 C 263.054688 26.339844 263.554688 26.390625 264.054688 26.488281 C 264.554688 26.589844 265.035156 26.734375 265.507812 26.929688 C 265.976562 27.125 266.421875 27.363281 266.84375 27.644531 C 267.265625 27.925781 267.65625 28.246094 268.015625 28.605469 C 268.375 28.964844 268.695312 29.355469 268.976562 29.777344 C 269.261719 30.203125 269.5 30.648438 269.695312 31.117188 C 269.886719 31.585938 270.035156 32.070312 270.132812 32.570312 C 270.234375 33.066406 270.28125 33.570312 270.28125 34.078125 L 270.28125 111.453125 C 270.28125 111.960938 270.234375 112.464844 270.132812 112.960938 C 270.035156 113.460938 269.886719 113.945312 269.695312 114.414062 C 269.5 114.882812 269.261719 115.328125 268.976562 115.75 C 268.695312 116.175781 268.375 116.566406 268.015625 116.925781 C 267.65625 117.285156 267.265625 117.605469 266.84375 117.886719 C 266.421875 118.167969 265.976562 118.40625 265.507812 118.601562 C 265.035156 118.796875 264.554688 118.941406 264.054688 119.042969 C 263.554688 119.140625 263.054688 119.191406 262.546875 119.191406 L 185.171875 119.191406 C 184.660156 119.191406 184.160156 119.140625 183.660156 119.042969 C 183.164062 118.941406 182.679688 118.796875 182.207031 118.601562 C 181.738281 118.40625 181.292969 118.167969 180.871094 117.886719 C 180.449219 117.605469 180.058594 117.285156 179.699219 116.925781 C 179.339844 116.566406 179.019531 116.175781 178.738281 115.75 C 178.453125 115.328125 178.214844 114.882812 178.019531 114.414062 C 177.828125 113.945312 177.679688 113.460938 177.582031 112.960938 C 177.480469 112.464844 177.433594 111.960938 177.433594 111.453125 L 177.433594 34.078125 C 177.433594 33.570312 177.480469 33.066406 177.582031 32.570312 C 177.679688 32.070312 177.828125 31.585938 178.019531 31.117188 C 178.214844 30.648438 178.453125 30.203125 178.738281 29.777344 C 179.019531 29.355469 179.339844 28.964844 179.699219 28.605469 C 180.058594 28.246094 180.449219 27.925781 180.871094 27.644531 C 181.292969 27.363281 181.738281 27.125 182.207031 26.929688 C 182.679688 26.734375 183.164062 26.589844 183.660156 26.488281 C 184.160156 26.390625 184.660156 26.339844 185.171875 26.339844 Z M 185.171875 26.339844 " fill-opacity="0.9" fill-rule="nonzero"/><path fill="#e83a95" d="M 185.171875 41.816406 L 262.546875 41.816406 C 263.054688 41.816406 263.554688 41.863281 264.054688 41.964844 C 264.554688 42.0625 265.035156 42.210938 265.507812 42.40625 C 265.976562 42.597656 266.421875 42.835938 266.84375 43.121094 C 267.265625 43.402344 267.65625 43.722656 268.015625 44.082031 C 268.375 44.441406 268.695312 44.832031 268.976562 45.253906 C 269.261719 45.675781 269.5 46.121094 269.695312 46.59375 C 269.886719 47.0625 270.035156 47.546875 270.132812 48.042969 C 270.234375 48.542969 270.28125 49.042969 270.28125 49.554688 L 270.28125 126.929688 C 270.28125 127.4375 270.234375 127.9375 270.132812 128.4375 C 270.035156 128.9375 269.886719 129.417969 269.695312 129.890625 C 269.5 130.359375 269.261719 130.804688 268.976562 131.226562 C 268.695312 131.648438 268.375 132.039062 268.015625 132.398438 C 267.65625 132.757812 267.265625 133.078125 266.84375 133.363281 C 266.421875 133.644531 265.976562 133.882812 265.507812 134.078125 C 265.035156 134.269531 264.554688 134.417969 264.054688 134.515625 C 263.554688 134.617188 263.054688 134.664062 262.546875 134.664062 L 185.171875 134.664062 C 184.660156 134.664062 184.160156 134.617188 183.660156 134.515625 C 183.164062 134.417969 182.679688 134.269531 182.207031 134.078125 C 181.738281 133.882812 181.292969 133.644531 180.871094 133.363281 C 180.449219 133.078125 180.058594 132.757812 179.699219 132.398438 C 179.339844 132.039062 179.019531 131.648438 178.738281 131.226562 C 178.453125 130.804688 178.214844 130.359375 178.019531 129.890625 C 177.828125 129.417969 177.679688 128.9375 177.582031 128.4375 C 177.480469 127.9375 177.433594 127.4375 177.433594 126.929688 L 177.433594 49.554688 C 177.433594 49.042969 177.480469 48.542969 177.582031 48.042969 C 177.679688 47.546875 177.828125 47.0625 178.019531 46.59375 C 178.214844 46.121094 178.453125 45.675781 178.738281 45.253906 C 179.019531 44.832031 179.339844 44.441406 179.699219 44.082031 C 180.058594 43.722656 180.449219 43.402344 180.871094 43.121094 C 181.292969 42.835938 181.738281 42.597656 182.207031 42.40625 C 182.679688 42.210938 183.164062 42.0625 183.660156 41.964844 C 184.160156 41.863281 184.660156 41.816406 185.171875 41.816406 Z M 185.171875 41.816406 " fill-opacity="0.7" fill-rule="nonzero"/><path fill="#e83a95" d="M 185.171875 57.289062 L 262.546875 57.289062 C 263.054688 57.289062 263.554688 57.339844 264.054688 57.4375 C 264.554688 57.539062 265.035156 57.683594 265.507812 57.878906 C 265.976562 58.074219 266.421875 58.3125 266.84375 58.59375 C 267.265625 58.875 267.65625 59.199219 268.015625 59.558594 C 268.375 59.914062 268.695312 60.308594 268.976562 60.730469 C 269.261719 61.152344 269.5 61.597656 269.695312 62.066406 C 269.886719 62.535156 270.035156 63.019531 270.132812 63.519531 C 270.234375 64.015625 270.28125 64.519531 270.28125 65.027344 L 270.28125 142.402344 C 270.28125 142.910156 270.234375 143.414062 270.132812 143.914062 C 270.035156 144.410156 269.886719 144.894531 269.695312 145.363281 C 269.5 145.832031 269.261719 146.277344 268.976562 146.703125 C 268.695312 147.125 268.375 147.515625 268.015625 147.875 C 267.65625 148.234375 267.265625 148.554688 266.84375 148.835938 C 266.421875 149.117188 265.976562 149.355469 265.507812 149.550781 C 265.035156 149.746094 264.554688 149.894531 264.054688 149.992188 C 263.554688 150.089844 263.054688 150.140625 262.546875 150.140625 L 185.171875 150.140625 C 184.660156 150.140625 184.160156 150.089844 183.660156 149.992188 C 183.164062 149.894531 182.679688 149.746094 182.207031 149.550781 C 181.738281 149.355469 181.292969 149.117188 180.871094 148.835938 C 180.449219 148.554688 180.058594 148.234375 179.699219 147.875 C 179.339844 147.515625 179.019531 147.125 178.738281 146.703125 C 178.453125 146.277344 178.214844 145.832031 178.019531 145.363281 C 177.828125 144.894531 177.679688 144.410156 177.582031 143.914062 C 177.480469 143.414062 177.433594 142.910156 177.433594 142.402344 L 177.433594 65.027344 C 177.433594 64.519531 177.480469 64.015625 177.582031 63.519531 C 177.679688 63.019531 177.828125 62.535156 178.019531 62.066406 C 178.214844 61.597656 178.453125 61.152344 178.738281 60.730469 C 179.019531 60.308594 179.339844 59.914062 179.699219 59.558594 C 180.058594 59.199219 180.449219 58.875 180.871094 58.59375 C 181.292969 58.3125 181.738281 58.074219 182.207031 57.878906 C 182.679688 57.683594 183.164062 57.539062 183.660156 57.4375 C 184.160156 57.339844 184.660156 57.289062 185.171875 57.289062 Z M 185.171875 57.289062 " fill-opacity="0.5" fill-rule="nonzero"/><path fill="#ffffff" d="M 192.90625 34.078125 L 254.808594 34.078125 C 255.316406 34.078125 255.820312 34.128906 256.316406 34.226562 C 256.816406 34.324219 257.300781 34.472656 257.769531 34.667969 C 258.238281 34.859375 258.683594 35.101562 259.105469 35.382812 C 259.527344 35.664062 259.917969 35.984375 260.277344 36.34375 C 260.636719 36.703125 260.957031 37.09375 261.242188 37.515625 C 261.523438 37.9375 261.761719 38.386719 261.957031 38.855469 C 262.152344 39.324219 262.296875 39.808594 262.394531 40.304688 C 262.496094 40.804688 262.546875 41.308594 262.546875 41.816406 C 262.546875 42.324219 262.496094 42.828125 262.394531 43.324219 C 262.296875 43.824219 262.152344 44.308594 261.957031 44.777344 C 261.761719 45.246094 261.523438 45.691406 261.242188 46.113281 C 260.957031 46.535156 260.636719 46.925781 260.277344 47.285156 C 259.917969 47.644531 259.527344 47.964844 259.105469 48.25 C 258.683594 48.53125 258.238281 48.769531 257.769531 48.964844 C 257.300781 49.160156 256.816406 49.304688 256.316406 49.402344 C 255.820312 49.503906 255.316406 49.554688 254.808594 49.554688 L 192.90625 49.554688 C 192.398438 49.554688 191.894531 49.503906 191.398438 49.402344 C 190.898438 49.304688 190.414062 49.160156 189.945312 48.964844 C 189.476562 48.769531 189.03125 48.53125 188.609375 48.25 C 188.1875 47.964844 187.796875 47.644531 187.4375 47.285156 C 187.078125 46.925781 186.757812 46.535156 186.472656 46.113281 C 186.191406 45.691406 185.953125 45.246094 185.757812 44.777344 C 185.566406 44.308594 185.417969 43.824219 185.320312 43.324219 C 185.21875 42.828125 185.171875 42.324219 185.171875 41.816406 C 185.171875 41.308594 185.21875 40.804688 185.320312 40.304688 C 185.417969 39.808594 185.566406 39.324219 185.757812 38.855469 C 185.953125 38.386719 186.191406 37.9375 186.472656 37.515625 C 186.757812 37.09375 187.078125 36.703125 187.4375 36.34375 C 187.796875 35.984375 188.1875 35.664062 188.609375 35.382812 C 189.03125 35.101562 189.476562 34.859375 189.945312 34.667969 C 190.414062 34.472656 190.898438 34.324219 191.398438 34.226562 C 191.894531 34.128906 192.398438 34.078125 192.90625 34.078125 Z M 192.90625 34.078125 " fill-opacity="0.3" fill-rule="nonzero"/><path fill="#ffffff" d="M 239.332031 80.503906 L 301.234375 80.503906 C 301.742188 80.503906 302.242188 80.550781 302.742188 80.652344 C 303.242188 80.75 303.722656 80.898438 304.195312 81.09375 C 304.664062 81.285156 305.109375 81.523438 305.53125 81.808594 C 305.953125 82.089844 306.34375 82.410156 306.703125 82.769531 C 307.0625 83.128906 307.382812 83.519531 307.664062 83.941406 C 307.949219 84.363281 308.1875 84.808594 308.382812 85.28125 C 308.574219 85.75 308.722656 86.234375 308.820312 86.730469 C 308.921875 87.230469 308.96875 87.730469 308.96875 88.242188 C 308.96875 88.75 308.921875 89.25 308.820312 89.75 C 308.722656 90.25 308.574219 90.730469 308.382812 91.203125 C 308.1875 91.671875 307.949219 92.117188 307.664062 92.539062 C 307.382812 92.960938 307.0625 93.351562 306.703125 93.710938 C 306.34375 94.070312 305.953125 94.390625 305.53125 94.675781 C 305.109375 94.957031 304.664062 95.195312 304.195312 95.390625 C 303.722656 95.582031 303.242188 95.730469 302.742188 95.828125 C 302.242188 95.929688 301.742188 95.976562 301.234375 95.976562 L 239.332031 95.976562 C 238.824219 95.976562 238.320312 95.929688 237.824219 95.828125 C 237.324219 95.730469 236.839844 95.582031 236.371094 95.390625 C 235.902344 95.195312 235.457031 94.957031 235.035156 94.675781 C 234.609375 94.390625 234.21875 94.070312 233.859375 93.710938 C 233.503906 93.351562 233.179688 92.960938 232.898438 92.539062 C 232.617188 92.117188 232.378906 91.671875 232.183594 91.203125 C 231.988281 90.730469 231.84375 90.25 231.742188 89.75 C 231.644531 89.25 231.59375 88.75 231.59375 88.242188 C 231.59375 87.730469 231.644531 87.230469 231.742188 86.730469 C 231.84375 86.234375 231.988281 85.75 232.183594 85.28125 C 232.378906 84.808594 232.617188 84.363281 232.898438 83.941406 C 233.179688 83.519531 233.503906 83.128906 233.859375 82.769531 C 234.21875 82.410156 234.609375 82.089844 235.035156 81.808594 C 235.457031 81.523438 235.902344 81.285156 236.371094 81.09375 C 236.839844 80.898438 237.324219 80.75 237.824219 80.652344 C 238.320312 80.550781 238.824219 80.503906 239.332031 80.503906 Z M 239.332031 80.503906 " fill-opacity="0.3" fill-rule="nonzero"/><path fill="#ffffff" d="M 131.007812 126.929688 L 192.90625 126.929688 C 193.414062 126.929688 193.917969 126.976562 194.417969 127.078125 C 194.914062 127.175781 195.398438 127.324219 195.867188 127.515625 C 196.335938 127.710938 196.785156 127.949219 197.207031 128.230469 C 197.628906 128.515625 198.019531 128.835938 198.378906 129.195312 C 198.738281 129.554688 199.058594 129.945312 199.339844 130.367188 C 199.625 130.789062 199.863281 131.234375 200.054688 131.703125 C 200.25 132.171875 200.398438 132.65625 200.496094 133.15625 C 200.59375 133.652344 200.644531 134.15625 200.644531 134.664062 C 200.644531 135.171875 200.59375 135.675781 200.496094 136.175781 C 200.398438 136.671875 200.25 137.15625 200.054688 137.625 C 199.863281 138.097656 199.625 138.542969 199.339844 138.964844 C 199.058594 139.386719 198.738281 139.777344 198.378906 140.136719 C 198.019531 140.496094 197.628906 140.816406 197.207031 141.097656 C 196.785156 141.382812 196.335938 141.621094 195.867188 141.8125 C 195.398438 142.007812 194.914062 142.15625 194.417969 142.253906 C 193.917969 142.351562 193.414062 142.402344 192.90625 142.402344 L 131.007812 142.402344 C 130.5 142.402344 129.996094 142.351562 129.496094 142.253906 C 129 142.15625 128.515625 142.007812 128.046875 141.8125 C 127.578125 141.621094 127.132812 141.382812 126.707031 141.097656 C 126.285156 140.816406 125.894531 140.496094 125.535156 140.136719 C 125.175781 139.777344 124.855469 139.386719 124.574219 138.964844 C 124.292969 138.542969 124.054688 138.097656 123.859375 137.625 C 123.664062 137.15625 123.519531 136.671875 123.417969 136.175781 C 123.320312 135.675781 123.269531 135.171875 123.269531 134.664062 C 123.269531 134.15625 123.320312 133.652344 123.417969 133.15625 C 123.519531 132.65625 123.664062 132.171875 123.859375 131.703125 C 124.054688 131.234375 124.292969 130.789062 124.574219 130.367188 C 124.855469 129.945312 125.175781 129.554688 125.535156 129.195312 C 125.894531 128.835938 126.285156 128.515625 126.707031 128.230469 C 127.132812 127.949219 127.578125 127.710938 128.046875 127.515625 C 128.515625 127.324219 129 127.175781 129.496094 127.078125 C 129.996094 126.976562 130.5 126.929688 131.007812 126.929688 Z M 131.007812 126.929688 " fill-opacity="0.3" fill-rule="nonzero"/></svg>