<svg xmlns="http://www.w3.org/2000/svg" xmlns:xlink="http://www.w3.org/1999/xlink" width="40" zoomAndPan="magnify" viewBox="0 0 30 30.000001" height="40" preserveAspectRatio="xMidYMid meet" version="1.0"><defs><clipPath id="9d6c1d6a5c"><path d="M 0.484375 15 L 29.515625 15 L 29.515625 29 L 0.484375 29 Z M 0.484375 15 " clip-rule="nonzero"/></clipPath><linearGradient x1="-0.00681819" gradientTransform="matrix(219.999994, 0, 0, 69.999998, 39.999998, 185.000005)" y1="0" x2="1.006818" gradientUnits="userSpaceOnUse" y2="0" id="3643c19fb8"><stop stop-opacity="0.7" stop-color="rgb(90.99884%, 22.698975%, 58.399963%)" offset="0"/><stop stop-opacity="0.7" stop-color="rgb(90.927124%, 22.758484%, 58.44574%)" offset="0.0078125"/><stop stop-opacity="0.7" stop-color="rgb(90.339661%, 23.254395%, 58.81958%)" offset="0.0117187"/><stop stop-opacity="0.7" stop-color="rgb(89.825439%, 23.68927%, 59.14917%)" offset="0.015625"/><stop stop-opacity="0.7" stop-color="rgb(89.309692%, 24.124146%, 59.47876%)" offset="0.0195312"/><stop stop-opacity="0.7" stop-color="rgb(88.793945%, 24.559021%, 59.80835%)" offset="0.0234375"/><stop stop-opacity="0.7" stop-color="rgb(88.278198%, 24.993896%, 60.137939%)" offset="0.0273437"/><stop stop-opacity="0.7" stop-color="rgb(87.762451%, 25.428772%, 60.467529%)" offset="0.03125"/><stop stop-opacity="0.7" stop-color="rgb(87.246704%, 25.863647%, 60.797119%)" offset="0.0351562"/><stop stop-opacity="0.7" stop-color="rgb(86.730957%, 26.298523%, 61.126709%)" offset="0.0390625"/><stop stop-opacity="0.7" stop-color="rgb(86.21521%, 26.733398%, 61.456299%)" offset="0.0429687"/><stop stop-opacity="0.7" stop-color="rgb(85.700989%, 27.168274%, 61.785889%)" offset="0.046875"/><stop stop-opacity="0.7" stop-color="rgb(85.185242%, 27.601624%, 62.113953%)" offset="0.0507812"/><stop stop-opacity="0.7" stop-color="rgb(84.669495%, 28.036499%, 62.443542%)" offset="0.0546875"/><stop stop-opacity="0.7" stop-color="rgb(84.153748%, 28.471375%, 62.773132%)" offset="0.0585937"/><stop stop-opacity="0.7" stop-color="rgb(83.638%, 28.90625%, 63.102722%)" offset="0.0625"/><stop stop-opacity="0.7" stop-color="rgb(83.122253%, 29.341125%, 63.432312%)" offset="0.0664062"/><stop stop-opacity="0.7" stop-color="rgb(82.608032%, 29.776001%, 63.761902%)" offset="0.0703125"/><stop stop-opacity="0.7" stop-color="rgb(82.092285%, 30.210876%, 64.091492%)" offset="0.0742187"/><stop stop-opacity="0.7" stop-color="rgb(81.576538%, 30.645752%, 64.421082%)" offset="0.078125"/><stop stop-opacity="0.7" stop-color="rgb(81.060791%, 31.080627%, 64.749146%)" offset="0.0820312"/><stop stop-opacity="0.7" stop-color="rgb(80.545044%, 31.515503%, 65.078735%)" offset="0.0859375"/><stop stop-opacity="0.7" stop-color="rgb(80.029297%, 31.950378%, 65.408325%)" offset="0.0898437"/><stop stop-opacity="0.7" stop-color="rgb(79.51355%, 32.385254%, 65.737915%)" offset="0.09375"/><stop stop-opacity="0.7" stop-color="rgb(78.997803%, 32.818604%, 66.067505%)" offset="0.0976562"/><stop stop-opacity="0.7" stop-color="rgb(78.483582%, 33.253479%, 66.397095%)" offset="0.101562"/><stop stop-opacity="0.7" stop-color="rgb(77.967834%, 33.688354%, 66.726685%)" offset="0.105469"/><stop stop-opacity="0.7" stop-color="rgb(77.452087%, 34.12323%, 67.056274%)" offset="0.109375"/><stop stop-opacity="0.7" stop-color="rgb(76.93634%, 34.558105%, 67.385864%)" offset="0.113281"/><stop stop-opacity="0.7" stop-color="rgb(76.420593%, 34.992981%, 67.715454%)" offset="0.117188"/><stop stop-opacity="0.7" stop-color="rgb(75.904846%, 35.427856%, 68.043518%)" offset="0.121094"/><stop stop-opacity="0.7" stop-color="rgb(75.390625%, 35.862732%, 68.373108%)" offset="0.125"/><stop stop-opacity="0.7" stop-color="rgb(74.874878%, 36.297607%, 68.702698%)" offset="0.128906"/><stop stop-opacity="0.7" stop-color="rgb(74.359131%, 36.732483%, 69.032288%)" offset="0.132812"/><stop stop-opacity="0.7" stop-color="rgb(73.843384%, 37.167358%, 69.361877%)" offset="0.136719"/><stop stop-opacity="0.7" stop-color="rgb(73.327637%, 37.602234%, 69.691467%)" offset="0.140625"/><stop stop-opacity="0.7" stop-color="rgb(72.81189%, 38.037109%, 70.021057%)" offset="0.144531"/><stop stop-opacity="0.7" stop-color="rgb(72.296143%, 38.471985%, 70.350647%)" offset="0.148437"/><stop stop-opacity="0.7" stop-color="rgb(71.780396%, 38.905334%, 70.680237%)" offset="0.152344"/><stop stop-opacity="0.7" stop-color="rgb(71.266174%, 39.34021%, 71.009827%)" offset="0.15625"/><stop stop-opacity="0.7" stop-color="rgb(70.750427%, 39.775085%, 71.337891%)" offset="0.160156"/><stop stop-opacity="0.7" stop-color="rgb(70.23468%, 40.209961%, 71.66748%)" offset="0.164062"/><stop stop-opacity="0.7" stop-color="rgb(69.718933%, 40.644836%, 71.99707%)" offset="0.167969"/><stop stop-opacity="0.7" stop-color="rgb(69.203186%, 41.079712%, 72.32666%)" offset="0.171875"/><stop stop-opacity="0.7" stop-color="rgb(68.687439%, 41.514587%, 72.65625%)" offset="0.175781"/><stop stop-opacity="0.7" stop-color="rgb(68.173218%, 41.949463%, 72.98584%)" offset="0.179687"/><stop stop-opacity="0.7" stop-color="rgb(67.657471%, 42.384338%, 73.31543%)" offset="0.183594"/><stop stop-opacity="0.7" stop-color="rgb(67.141724%, 42.819214%, 73.64502%)" offset="0.1875"/><stop stop-opacity="0.7" stop-color="rgb(66.625977%, 43.254089%, 73.974609%)" offset="0.191406"/><stop stop-opacity="0.7" stop-color="rgb(66.110229%, 43.688965%, 74.304199%)" offset="0.195312"/><stop stop-opacity="0.7" stop-color="rgb(65.594482%, 44.122314%, 74.632263%)" offset="0.199219"/><stop stop-opacity="0.7" stop-color="rgb(65.078735%, 44.55719%, 74.961853%)" offset="0.203125"/><stop stop-opacity="0.7" stop-color="rgb(64.562988%, 44.992065%, 75.291443%)" offset="0.207031"/><stop stop-opacity="0.7" stop-color="rgb(64.048767%, 45.426941%, 75.621033%)" offset="0.210937"/><stop stop-opacity="0.7" stop-color="rgb(63.53302%, 45.861816%, 75.950623%)" offset="0.214844"/><stop stop-opacity="0.7" stop-color="rgb(63.017273%, 46.296692%, 76.280212%)" offset="0.21875"/><stop stop-opacity="0.7" stop-color="rgb(62.501526%, 46.731567%, 76.609802%)" offset="0.222656"/><stop stop-opacity="0.7" stop-color="rgb(61.985779%, 47.166443%, 76.939392%)" offset="0.226562"/><stop stop-opacity="0.7" stop-color="rgb(61.470032%, 47.601318%, 77.268982%)" offset="0.230469"/><stop stop-opacity="0.7" stop-color="rgb(60.955811%, 48.036194%, 77.598572%)" offset="0.234375"/><stop stop-opacity="0.7" stop-color="rgb(60.440063%, 48.471069%, 77.926636%)" offset="0.238281"/><stop stop-opacity="0.7" stop-color="rgb(59.924316%, 48.905945%, 78.256226%)" offset="0.242187"/><stop stop-opacity="0.7" stop-color="rgb(59.408569%, 49.339294%, 78.585815%)" offset="0.246094"/><stop stop-opacity="0.7" stop-color="rgb(58.892822%, 49.77417%, 78.915405%)" offset="0.25"/><stop stop-opacity="0.7" stop-color="rgb(58.377075%, 50.209045%, 79.244995%)" offset="0.253906"/><stop stop-opacity="0.7" stop-color="rgb(57.861328%, 50.643921%, 79.574585%)" offset="0.257812"/><stop stop-opacity="0.7" stop-color="rgb(57.345581%, 51.078796%, 79.904175%)" offset="0.261719"/><stop stop-opacity="0.7" stop-color="rgb(56.83136%, 51.513672%, 80.233765%)" offset="0.265625"/><stop stop-opacity="0.7" stop-color="rgb(56.315613%, 51.948547%, 80.563354%)" offset="0.269531"/><stop stop-opacity="0.7" stop-color="rgb(55.799866%, 52.383423%, 80.892944%)" offset="0.273437"/><stop stop-opacity="0.7" stop-color="rgb(55.284119%, 52.818298%, 81.221008%)" offset="0.277344"/><stop stop-opacity="0.7" stop-color="rgb(54.768372%, 53.253174%, 81.550598%)" offset="0.28125"/><stop stop-opacity="0.7" stop-color="rgb(54.252625%, 53.688049%, 81.880188%)" offset="0.285156"/><stop stop-opacity="0.7" stop-color="rgb(53.738403%, 54.122925%, 82.209778%)" offset="0.289062"/><stop stop-opacity="0.7" stop-color="rgb(53.222656%, 54.5578%, 82.539368%)" offset="0.292969"/><stop stop-opacity="0.7" stop-color="rgb(52.706909%, 54.992676%, 82.868958%)" offset="0.296875"/><stop stop-opacity="0.7" stop-color="rgb(52.191162%, 55.426025%, 83.198547%)" offset="0.300781"/><stop stop-opacity="0.7" stop-color="rgb(51.675415%, 55.860901%, 83.528137%)" offset="0.304687"/><stop stop-opacity="0.7" stop-color="rgb(51.159668%, 56.295776%, 83.856201%)" offset="0.308594"/><stop stop-opacity="0.7" stop-color="rgb(50.643921%, 56.730652%, 84.185791%)" offset="0.3125"/><stop stop-opacity="0.7" stop-color="rgb(50.128174%, 57.165527%, 84.515381%)" offset="0.316406"/><stop stop-opacity="0.7" stop-color="rgb(49.613953%, 57.600403%, 84.844971%)" offset="0.320312"/><stop stop-opacity="0.7" stop-color="rgb(49.098206%, 58.035278%, 85.174561%)" offset="0.324219"/><stop stop-opacity="0.7" stop-color="rgb(48.582458%, 58.470154%, 85.50415%)" offset="0.328125"/><stop stop-opacity="0.7" stop-color="rgb(48.066711%, 58.905029%, 85.83374%)" offset="0.332031"/><stop stop-opacity="0.7" stop-color="rgb(47.550964%, 59.339905%, 86.16333%)" offset="0.335937"/><stop stop-opacity="0.7" stop-color="rgb(47.035217%, 59.77478%, 86.49292%)" offset="0.339844"/><stop stop-opacity="0.7" stop-color="rgb(46.520996%, 60.209656%, 86.82251%)" offset="0.34375"/><stop stop-opacity="0.7" stop-color="rgb(46.005249%, 60.643005%, 87.150574%)" offset="0.347656"/><stop stop-opacity="0.7" stop-color="rgb(45.489502%, 61.077881%, 87.480164%)" offset="0.351562"/><stop stop-opacity="0.7" stop-color="rgb(44.973755%, 61.512756%, 87.809753%)" offset="0.355469"/><stop stop-opacity="0.7" stop-color="rgb(44.458008%, 61.947632%, 88.139343%)" offset="0.359375"/><stop stop-opacity="0.7" stop-color="rgb(43.942261%, 62.382507%, 88.468933%)" offset="0.363281"/><stop stop-opacity="0.7" stop-color="rgb(43.426514%, 62.817383%, 88.798523%)" offset="0.367187"/><stop stop-opacity="0.7" stop-color="rgb(42.910767%, 63.252258%, 89.128113%)" offset="0.371094"/><stop stop-opacity="0.7" stop-color="rgb(42.396545%, 63.687134%, 89.457703%)" offset="0.375"/><stop stop-opacity="0.7" stop-color="rgb(41.880798%, 64.122009%, 89.787292%)" offset="0.378906"/><stop stop-opacity="0.7" stop-color="rgb(41.365051%, 64.556885%, 90.116882%)" offset="0.382812"/><stop stop-opacity="0.7" stop-color="rgb(40.849304%, 64.99176%, 90.444946%)" offset="0.386719"/><stop stop-opacity="0.7" stop-color="rgb(40.333557%, 65.426636%, 90.774536%)" offset="0.390625"/><stop stop-opacity="0.7" stop-color="rgb(39.81781%, 65.859985%, 91.104126%)" offset="0.394531"/><stop stop-opacity="0.7" stop-color="rgb(39.303589%, 66.294861%, 91.433716%)" offset="0.398437"/><stop stop-opacity="0.7" stop-color="rgb(38.787842%, 66.729736%, 91.763306%)" offset="0.402344"/><stop stop-opacity="0.7" stop-color="rgb(38.272095%, 67.164612%, 92.092896%)" offset="0.40625"/><stop stop-opacity="0.7" stop-color="rgb(37.756348%, 67.599487%, 92.422485%)" offset="0.410156"/><stop stop-opacity="0.7" stop-color="rgb(37.240601%, 68.034363%, 92.752075%)" offset="0.414062"/><stop stop-opacity="0.7" stop-color="rgb(36.724854%, 68.469238%, 93.081665%)" offset="0.417969"/><stop stop-opacity="0.7" stop-color="rgb(36.209106%, 68.904114%, 93.411255%)" offset="0.421875"/><stop stop-opacity="0.7" stop-color="rgb(35.693359%, 69.338989%, 93.739319%)" offset="0.425781"/><stop stop-opacity="0.7" stop-color="rgb(35.179138%, 69.773865%, 94.068909%)" offset="0.429687"/><stop stop-opacity="0.7" stop-color="rgb(34.663391%, 70.20874%, 94.398499%)" offset="0.433594"/><stop stop-opacity="0.7" stop-color="rgb(34.147644%, 70.643616%, 94.728088%)" offset="0.4375"/><stop stop-opacity="0.7" stop-color="rgb(33.631897%, 71.078491%, 95.057678%)" offset="0.441406"/><stop stop-opacity="0.7" stop-color="rgb(33.11615%, 71.513367%, 95.387268%)" offset="0.445312"/><stop stop-opacity="0.7" stop-color="rgb(32.600403%, 71.946716%, 95.716858%)" offset="0.449219"/><stop stop-opacity="0.7" stop-color="rgb(32.086182%, 72.381592%, 96.046448%)" offset="0.453125"/><stop stop-opacity="0.7" stop-color="rgb(31.570435%, 72.816467%, 96.376038%)" offset="0.457031"/><stop stop-opacity="0.7" stop-color="rgb(31.054688%, 73.251343%, 96.705627%)" offset="0.460937"/><stop stop-opacity="0.7" stop-color="rgb(30.53894%, 73.686218%, 97.033691%)" offset="0.464844"/><stop stop-opacity="0.7" stop-color="rgb(30.023193%, 74.121094%, 97.363281%)" offset="0.46875"/><stop stop-opacity="0.7" stop-color="rgb(29.507446%, 74.555969%, 97.692871%)" offset="0.472656"/><stop stop-opacity="0.7" stop-color="rgb(28.991699%, 74.990845%, 98.022461%)" offset="0.476562"/><stop stop-opacity="0.7" stop-color="rgb(28.475952%, 75.42572%, 98.352051%)" offset="0.480469"/><stop stop-opacity="0.7" stop-color="rgb(27.961731%, 75.860596%, 98.681641%)" offset="0.484375"/><stop stop-opacity="0.7" stop-color="rgb(27.445984%, 76.295471%, 99.01123%)" offset="0.488281"/><stop stop-opacity="0.7" stop-color="rgb(26.930237%, 76.730347%, 99.34082%)" offset="0.492187"/><stop stop-opacity="0.7" stop-color="rgb(26.41449%, 77.163696%, 99.668884%)" offset="0.496094"/><stop stop-opacity="0.7" stop-color="rgb(25.898743%, 77.598572%, 99.998474%)" offset="0.5"/><stop stop-opacity="0.7" stop-color="rgb(26.48468%, 77.565002%, 99.365234%)" offset="0.503906"/><stop stop-opacity="0.7" stop-color="rgb(27.072144%, 77.531433%, 98.731995%)" offset="0.507812"/><stop stop-opacity="0.7" stop-color="rgb(27.659607%, 77.496338%, 98.098755%)" offset="0.511719"/><stop stop-opacity="0.7" stop-color="rgb(28.24707%, 77.462769%, 97.465515%)" offset="0.515625"/><stop stop-opacity="0.7" stop-color="rgb(28.833008%, 77.429199%, 96.83075%)" offset="0.519531"/><stop stop-opacity="0.7" stop-color="rgb(29.420471%, 77.39563%, 96.19751%)" offset="0.523438"/><stop stop-opacity="0.7" stop-color="rgb(30.006409%, 77.360535%, 95.56427%)" offset="0.527344"/><stop stop-opacity="0.7" stop-color="rgb(30.593872%, 77.326965%, 94.93103%)" offset="0.53125"/><stop stop-opacity="0.7" stop-color="rgb(31.17981%, 77.29187%, 94.297791%)" offset="0.535156"/><stop stop-opacity="0.7" stop-color="rgb(31.767273%, 77.258301%, 93.664551%)" offset="0.539062"/><stop stop-opacity="0.7" stop-color="rgb(32.35321%, 77.224731%, 93.029785%)" offset="0.542969"/><stop stop-opacity="0.7" stop-color="rgb(32.940674%, 77.191162%, 92.396545%)" offset="0.546875"/><stop stop-opacity="0.7" stop-color="rgb(33.526611%, 77.156067%, 91.763306%)" offset="0.550781"/><stop stop-opacity="0.7" stop-color="rgb(34.114075%, 77.122498%, 91.130066%)" offset="0.554688"/><stop stop-opacity="0.7" stop-color="rgb(34.700012%, 77.087402%, 90.496826%)" offset="0.558594"/><stop stop-opacity="0.7" stop-color="rgb(35.287476%, 77.053833%, 89.863586%)" offset="0.5625"/><stop stop-opacity="0.7" stop-color="rgb(35.874939%, 77.020264%, 89.228821%)" offset="0.566406"/><stop stop-opacity="0.7" stop-color="rgb(36.462402%, 76.986694%, 88.595581%)" offset="0.570312"/><stop stop-opacity="0.7" stop-color="rgb(37.04834%, 76.951599%, 87.962341%)" offset="0.574219"/><stop stop-opacity="0.7" stop-color="rgb(37.635803%, 76.91803%, 87.329102%)" offset="0.578125"/><stop stop-opacity="0.7" stop-color="rgb(38.221741%, 76.882935%, 86.694336%)" offset="0.582031"/><stop stop-opacity="0.7" stop-color="rgb(38.809204%, 76.849365%, 86.061096%)" offset="0.585938"/><stop stop-opacity="0.7" stop-color="rgb(39.395142%, 76.815796%, 85.427856%)" offset="0.589844"/><stop stop-opacity="0.7" stop-color="rgb(39.982605%, 76.782227%, 84.794617%)" offset="0.59375"/><stop stop-opacity="0.7" stop-color="rgb(40.568542%, 76.747131%, 84.161377%)" offset="0.597656"/><stop stop-opacity="0.7" stop-color="rgb(41.156006%, 76.713562%, 83.528137%)" offset="0.601562"/><stop stop-opacity="0.7" stop-color="rgb(41.741943%, 76.679993%, 82.893372%)" offset="0.605469"/><stop stop-opacity="0.7" stop-color="rgb(42.329407%, 76.646423%, 82.260132%)" offset="0.609375"/><stop stop-opacity="0.7" stop-color="rgb(42.915344%, 76.611328%, 81.626892%)" offset="0.613281"/><stop stop-opacity="0.7" stop-color="rgb(43.502808%, 76.577759%, 80.993652%)" offset="0.617188"/><stop stop-opacity="0.7" stop-color="rgb(44.088745%, 76.542664%, 80.360413%)" offset="0.621094"/><stop stop-opacity="0.7" stop-color="rgb(44.676208%, 76.509094%, 79.727173%)" offset="0.625"/><stop stop-opacity="0.7" stop-color="rgb(45.263672%, 76.475525%, 79.092407%)" offset="0.628906"/><stop stop-opacity="0.7" stop-color="rgb(45.851135%, 76.441956%, 78.459167%)" offset="0.632812"/><stop stop-opacity="0.7" stop-color="rgb(46.437073%, 76.40686%, 77.825928%)" offset="0.636719"/><stop stop-opacity="0.7" stop-color="rgb(47.024536%, 76.373291%, 77.192688%)" offset="0.640625"/><stop stop-opacity="0.7" stop-color="rgb(47.610474%, 76.338196%, 76.557922%)" offset="0.644531"/><stop stop-opacity="0.7" stop-color="rgb(48.197937%, 76.304626%, 75.924683%)" offset="0.648438"/><stop stop-opacity="0.7" stop-color="rgb(48.783875%, 76.271057%, 75.291443%)" offset="0.652344"/><stop stop-opacity="0.7" stop-color="rgb(49.371338%, 76.237488%, 74.658203%)" offset="0.65625"/><stop stop-opacity="0.7" stop-color="rgb(49.957275%, 76.202393%, 74.024963%)" offset="0.660156"/><stop stop-opacity="0.7" stop-color="rgb(50.544739%, 76.168823%, 73.391724%)" offset="0.664062"/><stop stop-opacity="0.7" stop-color="rgb(51.130676%, 76.135254%, 72.756958%)" offset="0.667969"/><stop stop-opacity="0.7" stop-color="rgb(51.71814%, 76.101685%, 72.123718%)" offset="0.671875"/><stop stop-opacity="0.7" stop-color="rgb(52.304077%, 76.066589%, 71.490479%)" offset="0.675781"/><stop stop-opacity="0.7" stop-color="rgb(52.891541%, 76.03302%, 70.857239%)" offset="0.679688"/><stop stop-opacity="0.7" stop-color="rgb(53.477478%, 75.997925%, 70.223999%)" offset="0.683594"/><stop stop-opacity="0.7" stop-color="rgb(54.064941%, 75.964355%, 69.590759%)" offset="0.6875"/><stop stop-opacity="0.7" stop-color="rgb(54.652405%, 75.930786%, 68.955994%)" offset="0.691406"/><stop stop-opacity="0.7" stop-color="rgb(55.239868%, 75.897217%, 68.322754%)" offset="0.695312"/><stop stop-opacity="0.7" stop-color="rgb(55.825806%, 75.862122%, 67.689514%)" offset="0.699219"/><stop stop-opacity="0.7" stop-color="rgb(56.413269%, 75.828552%, 67.056274%)" offset="0.703125"/><stop stop-opacity="0.7" stop-color="rgb(56.999207%, 75.793457%, 66.421509%)" offset="0.707031"/><stop stop-opacity="0.7" stop-color="rgb(57.58667%, 75.759888%, 65.788269%)" offset="0.710938"/><stop stop-opacity="0.7" stop-color="rgb(58.172607%, 75.726318%, 65.155029%)" offset="0.714844"/><stop stop-opacity="0.7" stop-color="rgb(58.760071%, 75.692749%, 64.52179%)" offset="0.71875"/><stop stop-opacity="0.7" stop-color="rgb(59.346008%, 75.657654%, 63.88855%)" offset="0.722656"/><stop stop-opacity="0.7" stop-color="rgb(59.933472%, 75.624084%, 63.25531%)" offset="0.726562"/><stop stop-opacity="0.7" stop-color="rgb(60.519409%, 75.588989%, 62.620544%)" offset="0.730469"/><stop stop-opacity="0.7" stop-color="rgb(61.106873%, 75.55542%, 61.987305%)" offset="0.734375"/><stop stop-opacity="0.7" stop-color="rgb(61.69281%, 75.521851%, 61.354065%)" offset="0.738281"/><stop stop-opacity="0.7" stop-color="rgb(62.280273%, 75.488281%, 60.720825%)" offset="0.742188"/><stop stop-opacity="0.7" stop-color="rgb(62.867737%, 75.453186%, 60.087585%)" offset="0.746094"/><stop stop-opacity="0.7" stop-color="rgb(63.4552%, 75.419617%, 59.454346%)" offset="0.75"/><stop stop-opacity="0.7" stop-color="rgb(64.041138%, 75.386047%, 58.81958%)" offset="0.753906"/><stop stop-opacity="0.7" stop-color="rgb(64.628601%, 75.352478%, 58.18634%)" offset="0.757812"/><stop stop-opacity="0.7" stop-color="rgb(65.214539%, 75.317383%, 57.553101%)" offset="0.761719"/><stop stop-opacity="0.7" stop-color="rgb(65.802002%, 75.283813%, 56.919861%)" offset="0.765625"/><stop stop-opacity="0.7" stop-color="rgb(66.387939%, 75.248718%, 56.286621%)" offset="0.769531"/><stop stop-opacity="0.7" stop-color="rgb(66.975403%, 75.215149%, 55.653381%)" offset="0.773438"/><stop stop-opacity="0.7" stop-color="rgb(67.56134%, 75.18158%, 55.018616%)" offset="0.777344"/><stop stop-opacity="0.7" stop-color="rgb(68.148804%, 75.14801%, 54.385376%)" offset="0.78125"/><stop stop-opacity="0.7" stop-color="rgb(68.734741%, 75.112915%, 53.752136%)" offset="0.785156"/><stop stop-opacity="0.7" stop-color="rgb(69.322205%, 75.079346%, 53.118896%)" offset="0.789062"/><stop stop-opacity="0.7" stop-color="rgb(69.908142%, 75.04425%, 52.484131%)" offset="0.792969"/><stop stop-opacity="0.7" stop-color="rgb(70.495605%, 75.010681%, 51.850891%)" offset="0.796875"/><stop stop-opacity="0.7" stop-color="rgb(71.081543%, 74.977112%, 51.217651%)" offset="0.800781"/><stop stop-opacity="0.7" stop-color="rgb(71.669006%, 74.943542%, 50.584412%)" offset="0.804688"/><stop stop-opacity="0.7" stop-color="rgb(72.25647%, 74.908447%, 49.951172%)" offset="0.808594"/><stop stop-opacity="0.7" stop-color="rgb(72.843933%, 74.874878%, 49.317932%)" offset="0.8125"/><stop stop-opacity="0.7" stop-color="rgb(73.429871%, 74.841309%, 48.683167%)" offset="0.816406"/><stop stop-opacity="0.7" stop-color="rgb(74.017334%, 74.807739%, 48.049927%)" offset="0.820312"/><stop stop-opacity="0.7" stop-color="rgb(74.603271%, 74.772644%, 47.416687%)" offset="0.824219"/><stop stop-opacity="0.7" stop-color="rgb(75.190735%, 74.739075%, 46.783447%)" offset="0.828125"/><stop stop-opacity="0.7" stop-color="rgb(75.776672%, 74.703979%, 46.150208%)" offset="0.832031"/><stop stop-opacity="0.7" stop-color="rgb(76.364136%, 74.67041%, 45.516968%)" offset="0.835938"/><stop stop-opacity="0.7" stop-color="rgb(76.950073%, 74.636841%, 44.882202%)" offset="0.839844"/><stop stop-opacity="0.7" stop-color="rgb(77.537537%, 74.603271%, 44.248962%)" offset="0.84375"/><stop stop-opacity="0.7" stop-color="rgb(78.123474%, 74.568176%, 43.615723%)" offset="0.847656"/><stop stop-opacity="0.7" stop-color="rgb(78.710938%, 74.534607%, 42.982483%)" offset="0.851562"/><stop stop-opacity="0.7" stop-color="rgb(79.296875%, 74.499512%, 42.347717%)" offset="0.855469"/><stop stop-opacity="0.7" stop-color="rgb(79.884338%, 74.465942%, 41.714478%)" offset="0.859375"/><stop stop-opacity="0.7" stop-color="rgb(80.470276%, 74.432373%, 41.081238%)" offset="0.863281"/><stop stop-opacity="0.7" stop-color="rgb(81.057739%, 74.398804%, 40.447998%)" offset="0.867188"/><stop stop-opacity="0.7" stop-color="rgb(81.645203%, 74.363708%, 39.814758%)" offset="0.871094"/><stop stop-opacity="0.7" stop-color="rgb(82.232666%, 74.330139%, 39.181519%)" offset="0.875"/><stop stop-opacity="0.7" stop-color="rgb(82.818604%, 74.295044%, 38.546753%)" offset="0.878906"/><stop stop-opacity="0.7" stop-color="rgb(83.406067%, 74.261475%, 37.913513%)" offset="0.882812"/><stop stop-opacity="0.7" stop-color="rgb(83.992004%, 74.227905%, 37.280273%)" offset="0.886719"/><stop stop-opacity="0.7" stop-color="rgb(84.579468%, 74.194336%, 36.647034%)" offset="0.890625"/><stop stop-opacity="0.7" stop-color="rgb(85.165405%, 74.159241%, 36.013794%)" offset="0.894531"/><stop stop-opacity="0.7" stop-color="rgb(85.752869%, 74.125671%, 35.380554%)" offset="0.898438"/><stop stop-opacity="0.7" stop-color="rgb(86.338806%, 74.092102%, 34.745789%)" offset="0.902344"/><stop stop-opacity="0.7" stop-color="rgb(86.92627%, 74.058533%, 34.112549%)" offset="0.90625"/><stop stop-opacity="0.7" stop-color="rgb(87.512207%, 74.023438%, 33.479309%)" offset="0.910156"/><stop stop-opacity="0.7" stop-color="rgb(88.09967%, 73.989868%, 32.846069%)" offset="0.914062"/><stop stop-opacity="0.7" stop-color="rgb(88.685608%, 73.954773%, 32.211304%)" offset="0.917969"/><stop stop-opacity="0.7" stop-color="rgb(89.273071%, 73.921204%, 31.578064%)" offset="0.921875"/><stop stop-opacity="0.7" stop-color="rgb(89.860535%, 73.887634%, 30.944824%)" offset="0.925781"/><stop stop-opacity="0.7" stop-color="rgb(90.447998%, 73.854065%, 30.311584%)" offset="0.929688"/><stop stop-opacity="0.7" stop-color="rgb(91.033936%, 73.81897%, 29.678345%)" offset="0.933594"/><stop stop-opacity="0.7" stop-color="rgb(91.621399%, 73.7854%, 29.045105%)" offset="0.9375"/><stop stop-opacity="0.7" stop-color="rgb(92.207336%, 73.750305%, 28.410339%)" offset="0.941406"/><stop stop-opacity="0.7" stop-color="rgb(92.7948%, 73.716736%, 27.7771%)" offset="0.945312"/><stop stop-opacity="0.7" stop-color="rgb(93.380737%, 73.683167%, 27.14386%)" offset="0.949219"/><stop stop-opacity="0.7" stop-color="rgb(93.968201%, 73.649597%, 26.51062%)" offset="0.953125"/><stop stop-opacity="0.7" stop-color="rgb(94.554138%, 73.614502%, 25.87738%)" offset="0.957031"/><stop stop-opacity="0.7" stop-color="rgb(95.141602%, 73.580933%, 25.244141%)" offset="0.960938"/><stop stop-opacity="0.7" stop-color="rgb(95.727539%, 73.545837%, 24.609375%)" offset="0.964844"/><stop stop-opacity="0.7" stop-color="rgb(96.315002%, 73.512268%, 23.976135%)" offset="0.96875"/><stop stop-opacity="0.7" stop-color="rgb(96.90094%, 73.478699%, 23.342896%)" offset="0.972656"/><stop stop-opacity="0.7" stop-color="rgb(97.488403%, 73.445129%, 22.709656%)" offset="0.976562"/><stop stop-opacity="0.7" stop-color="rgb(98.074341%, 73.410034%, 22.07489%)" offset="0.980469"/><stop stop-opacity="0.7" stop-color="rgb(98.661804%, 73.376465%, 21.44165%)" offset="0.984375"/><stop stop-opacity="0.7" stop-color="rgb(99.249268%, 73.342896%, 20.808411%)" offset="0.988281"/><stop stop-opacity="0.7" stop-color="rgb(99.836731%, 73.309326%, 20.175171%)" offset="0.992187"/><stop stop-opacity="0.7" stop-color="rgb(99.917603%, 73.303223%, 20.08667%)" offset="1"/></linearGradient></defs><path fill="#121838" d="M 27.15625 22.097656 C 27.15625 22.335938 27.078125 22.570312 26.921875 22.804688 C 26.769531 23.039062 26.539062 23.265625 26.234375 23.484375 C 25.929688 23.707031 25.558594 23.914062 25.117188 24.113281 C 24.675781 24.3125 24.175781 24.496094 23.613281 24.664062 C 23.050781 24.832031 22.441406 24.980469 21.78125 25.113281 C 21.121094 25.246094 20.421875 25.359375 19.6875 25.449219 C 18.953125 25.542969 18.199219 25.609375 17.417969 25.65625 C 16.640625 25.703125 15.855469 25.726562 15.058594 25.726562 C 14.265625 25.726562 13.480469 25.703125 12.699219 25.65625 C 11.921875 25.609375 11.164062 25.542969 10.429688 25.449219 C 9.695312 25.359375 9 25.246094 8.339844 25.113281 C 7.679688 24.980469 7.066406 24.832031 6.503906 24.664062 C 5.945312 24.496094 5.441406 24.3125 5 24.113281 C 4.558594 23.914062 4.1875 23.707031 3.882812 23.484375 C 3.578125 23.265625 3.351562 23.039062 3.195312 22.804688 C 3.039062 22.570312 2.960938 22.335938 2.960938 22.097656 C 2.960938 21.859375 3.039062 21.621094 3.195312 21.390625 C 3.351562 21.15625 3.578125 20.929688 3.882812 20.707031 C 4.1875 20.488281 4.558594 20.277344 5 20.082031 C 5.441406 19.882812 5.945312 19.699219 6.503906 19.53125 C 7.066406 19.363281 7.679688 19.210938 8.339844 19.078125 C 9 18.949219 9.695312 18.835938 10.429688 18.746094 C 11.164062 18.652344 11.921875 18.585938 12.699219 18.539062 C 13.480469 18.492188 14.265625 18.46875 15.058594 18.46875 C 15.855469 18.46875 16.640625 18.492188 17.417969 18.539062 C 18.199219 18.585938 18.953125 18.652344 19.6875 18.746094 C 20.421875 18.835938 21.121094 18.949219 21.78125 19.078125 C 22.441406 19.210938 23.050781 19.363281 23.613281 19.53125 C 24.175781 19.699219 24.675781 19.882812 25.117188 20.082031 C 25.558594 20.277344 25.929688 20.488281 26.234375 20.707031 C 26.539062 20.929688 26.769531 21.15625 26.921875 21.390625 C 27.078125 21.621094 27.15625 21.859375 27.15625 22.097656 Z M 27.15625 22.097656 " fill-opacity="1" fill-rule="nonzero"/><g clip-path="url(#9d6c1d6a5c)"><path stroke-linecap="butt" transform="matrix(0.120968, 0, 0, 0.120968, -3.085671, -4.515746)" fill="none" stroke-linejoin="miter" d="M 260.010283 220.004108 C 260.010283 222.296816 259.299866 224.589525 257.879033 226.817649 C 256.490491 229.078066 254.391533 231.273899 251.61445 233.405149 C 248.869658 235.504107 245.479033 237.538482 241.474867 239.44369 C 237.438409 241.348899 232.885284 243.12494 227.783201 244.739523 C 222.681118 246.386398 217.126952 247.839523 211.120702 249.098898 C 205.114453 250.390565 198.752995 251.45619 192.100912 252.328065 C 185.416537 253.199939 178.538413 253.878064 171.466538 254.330148 C 164.362372 254.782231 157.225914 255.008273 149.992581 255.008273 C 142.79154 255.008273 135.62279 254.782231 128.550916 254.330148 C 121.446749 253.878064 114.568625 253.199939 107.916542 252.328065 C 101.232167 251.45619 94.903001 250.390565 88.896751 249.098898 C 82.890502 247.839523 77.336336 246.386398 72.234253 244.739523 C 67.099878 243.12494 62.546753 241.348899 58.542587 239.44369 C 54.53842 237.538482 51.147795 235.504107 48.370712 233.405149 C 45.593629 231.273899 43.526963 229.078066 42.106129 226.817649 C 40.717588 224.589525 40.007171 222.296816 40.007171 220.004108 C 40.007171 217.7114 40.717588 215.418692 42.106129 213.158275 C 43.526963 210.93015 45.593629 208.734317 48.370712 206.603067 C 51.147795 204.471818 54.53842 202.469734 58.542587 200.564526 C 62.546753 198.659318 67.099878 196.883276 72.234253 195.236401 C 77.336336 193.621818 82.890502 192.168693 88.896751 190.909318 C 94.903001 189.617652 101.232167 188.552027 107.916542 187.680152 C 114.568625 186.775985 121.446749 186.130152 128.550916 185.678069 C 135.62279 185.225985 142.79154 184.999944 149.992581 184.999944 C 157.225914 184.999944 164.362372 185.225985 171.466538 185.678069 C 178.538413 186.130152 185.416537 186.775985 192.100912 187.680152 C 198.752995 188.552027 205.114453 189.617652 211.120702 190.909318 C 217.126952 192.168693 222.681118 193.621818 227.783201 195.236401 C 232.885284 196.883276 237.438409 198.659318 241.474867 200.564526 C 245.479033 202.469734 248.869658 204.471818 251.61445 206.603067 C 254.391533 208.734317 256.490491 210.93015 257.879033 213.158275 C 259.299866 215.418692 260.010283 217.7114 260.010283 220.004108 Z M 260.010283 220.004108 " stroke="url(#3643c19fb8)" stroke-width="3" stroke-miterlimit="4"/></g><path fill="#ffbb33" d="M 19.292969 10 L 25.339844 10 C 25.507812 10 25.652344 10.058594 25.769531 10.175781 C 25.886719 10.296875 25.945312 10.4375 25.945312 10.605469 L 25.945312 16.652344 C 25.945312 16.820312 25.886719 16.964844 25.769531 17.082031 C 25.652344 17.199219 25.507812 17.257812 25.339844 17.257812 L 19.292969 17.257812 C 19.125 17.257812 18.984375 17.199219 18.867188 17.082031 C 18.746094 16.964844 18.6875 16.820312 18.6875 16.652344 L 18.6875 10.605469 C 18.6875 10.4375 18.746094 10.296875 18.867188 10.175781 C 18.984375 10.058594 19.125 10 19.292969 10 Z M 19.292969 10 " fill-opacity="0.9" fill-rule="nonzero"/><path fill="#ffbb33" d="M 19.292969 11.210938 L 25.339844 11.210938 C 25.507812 11.210938 25.652344 11.269531 25.769531 11.386719 C 25.886719 11.503906 25.945312 11.648438 25.945312 11.816406 L 25.945312 17.863281 C 25.945312 18.03125 25.886719 18.171875 25.769531 18.289062 C 25.652344 18.410156 25.507812 18.46875 25.339844 18.46875 L 19.292969 18.46875 C 19.125 18.46875 18.984375 18.410156 18.867188 18.289062 C 18.746094 18.171875 18.6875 18.03125 18.6875 17.863281 L 18.6875 11.816406 C 18.6875 11.648438 18.746094 11.503906 18.867188 11.386719 C 18.984375 11.269531 19.125 11.210938 19.292969 11.210938 Z M 19.292969 11.210938 " fill-opacity="0.7" fill-rule="nonzero"/><path fill="#ffbb33" d="M 19.292969 12.417969 L 25.339844 12.417969 C 25.507812 12.417969 25.652344 12.480469 25.769531 12.597656 C 25.886719 12.714844 25.945312 12.859375 25.945312 13.023438 L 25.945312 19.074219 C 25.945312 19.238281 25.886719 19.382812 25.769531 19.5 C 25.652344 19.617188 25.507812 19.679688 25.339844 19.679688 L 19.292969 19.679688 C 19.125 19.679688 18.984375 19.617188 18.867188 19.5 C 18.746094 19.382812 18.6875 19.238281 18.6875 19.074219 L 18.6875 13.023438 C 18.6875 12.859375 18.746094 12.714844 18.867188 12.597656 C 18.984375 12.480469 19.125 12.417969 19.292969 12.417969 Z M 19.292969 12.417969 " fill-opacity="0.5" fill-rule="nonzero"/><path fill="#42c6ff" d="M 10.824219 13.628906 L 16.875 13.628906 C 17.042969 13.628906 17.183594 13.6875 17.300781 13.804688 C 17.417969 13.925781 17.480469 14.066406 17.480469 14.234375 L 17.480469 20.28125 C 17.480469 20.449219 17.417969 20.59375 17.300781 20.710938 C 17.183594 20.828125 17.042969 20.886719 16.875 20.886719 L 10.824219 20.886719 C 10.660156 20.886719 10.515625 20.828125 10.398438 20.710938 C 10.28125 20.59375 10.222656 20.449219 10.222656 20.28125 L 10.222656 14.234375 C 10.222656 14.066406 10.28125 13.925781 10.398438 13.804688 C 10.515625 13.6875 10.660156 13.628906 10.824219 13.628906 Z M 10.824219 13.628906 " fill-opacity="0.9" fill-rule="nonzero"/><path fill="#42c6ff" d="M 10.824219 14.839844 L 16.875 14.839844 C 17.042969 14.839844 17.183594 14.898438 17.300781 15.015625 C 17.417969 15.132812 17.480469 15.277344 17.480469 15.445312 L 17.480469 21.492188 C 17.480469 21.660156 17.417969 21.800781 17.300781 21.921875 C 17.183594 22.039062 17.042969 22.097656 16.875 22.097656 L 10.824219 22.097656 C 10.660156 22.097656 10.515625 22.039062 10.398438 21.921875 C 10.28125 21.800781 10.222656 21.660156 10.222656 21.492188 L 10.222656 15.445312 C 10.222656 15.277344 10.28125 15.132812 10.398438 15.015625 C 10.515625 14.898438 10.660156 14.839844 10.824219 14.839844 Z M 10.824219 14.839844 " fill-opacity="0.7" fill-rule="nonzero"/><path fill="#42c6ff" d="M 10.824219 16.046875 L 16.875 16.046875 C 17.042969 16.046875 17.183594 16.109375 17.300781 16.226562 C 17.417969 16.34375 17.480469 16.488281 17.480469 16.652344 L 17.480469 22.703125 C 17.480469 22.867188 17.417969 23.011719 17.300781 23.128906 C 17.183594 23.246094 17.042969 23.308594 16.875 23.308594 L 10.824219 23.308594 C 10.660156 23.308594 10.515625 23.246094 10.398438 23.128906 C 10.28125 23.011719 10.222656 22.867188 10.222656 22.703125 L 10.222656 16.652344 C 10.222656 16.488281 10.28125 16.34375 10.398438 16.226562 C 10.515625 16.109375 10.660156 16.046875 10.824219 16.046875 Z M 10.824219 16.046875 " fill-opacity="0.5" fill-rule="nonzero"/><path fill="#e83a95" d="M 15.664062 6.371094 L 21.710938 6.371094 C 21.878906 6.371094 22.023438 6.429688 22.140625 6.546875 C 22.257812 6.667969 22.316406 6.808594 22.316406 6.976562 L 22.316406 13.023438 C 22.316406 13.191406 22.257812 13.335938 22.140625 13.453125 C 22.023438 13.570312 21.878906 13.628906 21.710938 13.628906 L 15.664062 13.628906 C 15.496094 13.628906 15.355469 13.570312 15.238281 13.453125 C 15.117188 13.335938 15.058594 13.191406 15.058594 13.023438 L 15.058594 6.976562 C 15.058594 6.808594 15.117188 6.667969 15.238281 6.546875 C 15.355469 6.429688 15.496094 6.371094 15.664062 6.371094 Z M 15.664062 6.371094 " fill-opacity="0.9" fill-rule="nonzero"/><path fill="#e83a95" d="M 15.664062 7.582031 L 21.710938 7.582031 C 21.878906 7.582031 22.023438 7.640625 22.140625 7.757812 C 22.257812 7.875 22.316406 8.019531 22.316406 8.1875 L 22.316406 14.234375 C 22.316406 14.402344 22.257812 14.542969 22.140625 14.660156 C 22.023438 14.78125 21.878906 14.839844 21.710938 14.839844 L 15.664062 14.839844 C 15.496094 14.839844 15.355469 14.78125 15.238281 14.660156 C 15.117188 14.542969 15.058594 14.402344 15.058594 14.234375 L 15.058594 8.1875 C 15.058594 8.019531 15.117188 7.875 15.238281 7.757812 C 15.355469 7.640625 15.496094 7.582031 15.664062 7.582031 Z M 15.664062 7.582031 " fill-opacity="0.7" fill-rule="nonzero"/><path fill="#e83a95" d="M 15.664062 8.789062 L 21.710938 8.789062 C 21.878906 8.789062 22.023438 8.851562 22.140625 8.96875 C 22.257812 9.085938 22.316406 9.230469 22.316406 9.394531 L 22.316406 15.445312 C 22.316406 15.609375 22.257812 15.753906 22.140625 15.871094 C 22.023438 15.988281 21.878906 16.046875 21.710938 16.046875 L 15.664062 16.046875 C 15.496094 16.046875 15.355469 15.988281 15.238281 15.871094 C 15.117188 15.753906 15.058594 15.609375 15.058594 15.445312 L 15.058594 9.394531 C 15.058594 9.230469 15.117188 9.085938 15.238281 8.96875 C 15.355469 8.851562 15.496094 8.789062 15.664062 8.789062 Z M 15.664062 8.789062 " fill-opacity="0.5" fill-rule="nonzero"/><path fill="#ffffff" d="M 16.269531 6.976562 L 21.109375 6.976562 C 21.273438 6.976562 21.417969 7.035156 21.535156 7.152344 C 21.652344 7.269531 21.710938 7.414062 21.710938 7.582031 C 21.710938 7.75 21.652344 7.890625 21.535156 8.007812 C 21.417969 8.125 21.273438 8.1875 21.109375 8.1875 L 16.269531 8.1875 C 16.101562 8.1875 15.960938 8.125 15.839844 8.007812 C 15.722656 7.890625 15.664062 7.75 15.664062 7.582031 C 15.664062 7.414062 15.722656 7.269531 15.839844 7.152344 C 15.960938 7.035156 16.101562 6.976562 16.269531 6.976562 Z M 16.269531 6.976562 " fill-opacity="0.3" fill-rule="nonzero"/><path fill="#ffffff" d="M 19.898438 10.605469 L 24.738281 10.605469 C 24.902344 10.605469 25.046875 10.664062 25.164062 10.78125 C 25.28125 10.902344 25.339844 11.042969 25.339844 11.210938 C 25.339844 11.378906 25.28125 11.519531 25.164062 11.636719 C 25.046875 11.753906 24.902344 11.816406 24.738281 11.816406 L 19.898438 11.816406 C 19.730469 11.816406 19.589844 11.753906 19.46875 11.636719 C 19.351562 11.519531 19.292969 11.378906 19.292969 11.210938 C 19.292969 11.042969 19.351562 10.902344 19.46875 10.78125 C 19.589844 10.664062 19.730469 10.605469 19.898438 10.605469 Z M 19.898438 10.605469 " fill-opacity="0.3" fill-rule="nonzero"/><path fill="#ffffff" d="M 11.429688 14.234375 L 16.269531 14.234375 C 16.4375 14.234375 16.578125 14.292969 16.695312 14.410156 C 16.816406 14.53125 16.875 14.671875 16.875 14.839844 C 16.875 15.007812 16.816406 15.148438 16.695312 15.265625 C 16.578125 15.386719 16.4375 15.445312 16.269531 15.445312 L 11.429688 15.445312 C 11.261719 15.445312 11.121094 15.386719 11.003906 15.265625 C 10.882812 15.148438 10.824219 15.007812 10.824219 14.839844 C 10.824219 14.671875 10.882812 14.53125 11.003906 14.410156 C 11.121094 14.292969 11.261719 14.234375 11.429688 14.234375 Z M 11.429688 14.234375 " fill-opacity="0.3" fill-rule="nonzero"/></svg>